<svg width="1555" height="604" viewBox="0 0 1555 604" fill="none" xmlns="http://www.w3.org/2000/svg">
<path d="M1521.64 598.716L1521.84 602.711L1529.83 602.308L1529.63 598.313L1525.64 598.515L1521.64 598.716ZM1525.64 151.582C1537.42 151.582 1546.97 142.031 1546.97 130.248C1546.97 118.466 1537.42 108.915 1525.64 108.915C1513.86 108.915 1504.3 118.466 1504.3 130.248C1504.3 142.031 1513.86 151.582 1525.64 151.582ZM1525.64 598.515C1529.63 598.313 1529.63 598.313 1529.63 598.312C1529.63 598.311 1529.63 598.31 1529.63 598.308C1529.63 598.304 1529.63 598.298 1529.63 598.29C1529.63 598.274 1529.63 598.25 1529.63 598.217C1529.62 598.152 1529.62 598.053 1529.61 597.922C1529.6 597.66 1529.58 597.268 1529.56 596.754C1529.52 595.725 1529.45 594.205 1529.38 592.249C1529.23 588.337 1529.05 582.681 1528.91 575.72C1528.63 561.795 1528.5 542.663 1529.13 521.83C1529.76 500.987 1531.14 478.496 1533.86 457.836C1536.59 437.105 1540.63 418.511 1546.44 405.301L1542.78 403.689L1539.12 402.076C1532.84 416.343 1528.68 435.841 1525.93 456.792C1523.16 477.814 1521.77 500.595 1521.14 521.589C1520.5 542.593 1520.63 561.864 1520.91 575.882C1521.06 582.893 1521.24 588.594 1521.38 592.545C1521.46 594.521 1521.52 596.06 1521.57 597.107C1521.59 597.63 1521.61 598.03 1521.62 598.301C1521.63 598.436 1521.63 598.539 1521.64 598.608C1521.64 598.643 1521.64 598.67 1521.64 598.688C1521.64 598.697 1521.64 598.704 1521.64 598.708C1521.64 598.711 1521.64 598.713 1521.64 598.714C1521.64 598.715 1521.64 598.716 1525.64 598.515ZM1542.78 403.689L1546.44 405.301C1549.71 397.876 1551.77 387.975 1552.97 376.581C1554.18 365.131 1554.55 351.914 1554.32 337.713C1553.84 309.308 1550.92 276.694 1547.26 245.888C1543.59 215.067 1539.17 185.977 1535.67 164.598C1533.92 153.907 1532.39 145.14 1531.31 139.042C1530.76 135.994 1530.33 133.612 1530.03 131.992C1529.88 131.181 1529.77 130.561 1529.69 130.143C1529.65 129.934 1529.62 129.775 1529.6 129.668C1529.59 129.615 1529.58 129.574 1529.58 129.547C1529.57 129.533 1529.57 129.523 1529.57 129.516C1529.57 129.512 1529.57 129.509 1529.57 129.508C1529.57 129.506 1529.57 129.505 1525.64 130.248C1521.71 130.992 1521.71 130.993 1521.71 130.994C1521.71 130.996 1521.71 130.998 1521.71 131.001C1521.71 131.007 1521.71 131.017 1521.71 131.03C1521.72 131.055 1521.73 131.094 1521.74 131.146C1521.76 131.25 1521.79 131.405 1521.82 131.611C1521.9 132.023 1522.01 132.636 1522.16 133.44C1522.46 135.046 1522.89 137.413 1523.43 140.445C1524.51 146.511 1526.03 155.242 1527.77 165.893C1531.27 187.197 1535.67 216.164 1539.32 246.833C1542.96 277.518 1545.85 309.829 1546.32 337.847C1546.55 351.856 1546.18 364.724 1545.02 375.741C1543.85 386.814 1541.9 395.762 1539.12 402.076L1542.78 403.689Z" fill="#00FF04"/>
<path d="M27.9715 598.054L27.1151 601.97L34.9278 603.615L35.7843 599.7L31.8779 598.877L27.9715 598.054ZM22.6386 118.493C34.4161 118.163 43.7799 108.347 43.5534 96.5671C43.3268 84.7872 33.5956 75.5047 21.8181 75.8341C10.0407 76.1636 0.676811 85.9801 0.903376 97.76C1.12994 109.54 10.8611 118.822 22.6386 118.493ZM31.8779 598.877C35.7843 599.7 35.7846 599.698 35.785 599.696C35.7855 599.694 35.7862 599.691 35.787 599.687C35.7888 599.679 35.7914 599.667 35.7949 599.651C35.8018 599.619 35.812 599.572 35.8256 599.51C35.8527 599.386 35.8929 599.201 35.9458 598.957C36.0514 598.47 36.2073 597.75 36.4088 596.812C36.8119 594.938 37.3976 592.196 38.1289 588.725C39.5915 581.782 41.6368 571.92 43.9689 560.234C48.6318 536.87 54.4474 506.187 59.0436 476.973C63.6256 447.849 67.0457 419.889 66.8201 402.112C66.7635 397.65 66.4771 393.692 65.8795 390.451C65.3098 387.361 64.3541 384.299 62.5046 382.217C61.5025 381.09 60.1598 380.165 58.4629 379.818C56.7865 379.474 55.1705 379.777 53.7517 380.375C51.0803 381.5 48.4965 383.925 45.956 387.019L49.0373 389.543L52.1187 392.066C54.4567 389.218 56.0076 388.08 56.8009 387.745C57.1145 387.613 57.0633 387.713 56.7935 387.657C56.5032 387.598 56.4089 387.453 56.5062 387.563C56.8555 387.956 57.5025 389.198 58.0134 391.969C58.4964 394.588 58.7686 398.047 58.8224 402.283C59.0383 419.301 55.7293 446.644 51.1428 475.796C46.5707 504.857 40.7786 535.42 36.1259 558.734C33.8003 570.387 31.7608 580.221 30.3031 587.14C29.5742 590.6 28.9909 593.33 28.5899 595.195C28.3895 596.127 28.2346 596.843 28.13 597.326C28.0777 597.567 28.038 597.749 28.0114 597.872C27.998 597.933 27.988 597.979 27.9814 598.009C27.978 598.024 27.9755 598.036 27.9739 598.043C27.9731 598.047 27.9725 598.05 27.9721 598.052C27.9717 598.053 27.9715 598.054 31.8779 598.877ZM49.0373 389.543L45.956 387.019C43.7321 389.728 42.4411 390.079 42.1033 390.099C42.0285 390.103 41.2872 390.161 39.937 388.277C38.6062 386.42 37.2263 383.368 35.8962 379.012C34.5839 374.714 33.3936 369.398 32.3245 363.198C28.0364 338.333 25.907 300.561 24.9953 261.051C24.0852 221.608 24.3922 180.663 24.9275 149.566C25.1951 134.021 25.5196 120.943 25.7772 111.754C25.9059 107.159 26.018 103.536 26.0978 101.064C26.1377 99.8272 26.1695 98.8783 26.1913 98.239C26.2023 97.9194 26.2107 97.6772 26.2164 97.5152C26.2192 97.4342 26.2214 97.3732 26.2228 97.3326C26.2235 97.3124 26.2241 97.2972 26.2244 97.2871C26.2246 97.2821 26.2247 97.2785 26.2248 97.2759C26.2249 97.2736 26.225 97.2725 22.2284 97.1635C18.2318 97.0546 18.2317 97.0561 18.2316 97.0589C18.2315 97.0616 18.2314 97.0657 18.2312 97.071C18.2308 97.0816 18.2303 97.0973 18.2295 97.1182C18.228 97.1599 18.2258 97.2221 18.2229 97.3043C18.2172 97.4686 18.2087 97.7133 18.1977 98.0353C18.1757 98.6795 18.1436 99.6334 18.1036 100.875C18.0234 103.358 17.9111 106.992 17.7819 111.599C17.5237 120.813 17.1985 133.919 16.9303 149.498C16.3941 180.649 16.0855 221.712 16.9991 261.305C17.9112 300.832 20.0447 339.125 24.4422 364.625C25.5445 371.017 26.8021 376.685 28.245 381.411C29.6701 386.078 31.3527 390.088 33.423 392.977C35.4738 395.838 38.4719 398.325 42.5059 398.086C46.2768 397.863 49.4641 395.299 52.1187 392.066L49.0373 389.543Z" fill="#00FF04"/>
<path d="M1424.84 598.484L1424.84 602.484L1432.84 602.546L1432.84 598.546L1428.84 598.515L1424.84 598.484ZM1435.13 229.586C1446.91 229.878 1456.62 220.566 1456.83 208.785C1457.03 197.005 1447.64 187.218 1435.86 186.926C1424.08 186.633 1414.37 195.946 1414.17 207.726C1413.97 219.507 1423.36 229.294 1435.13 229.586ZM1428.84 598.515C1432.84 598.546 1432.84 598.545 1432.84 598.543C1432.84 598.541 1432.84 598.538 1432.84 598.535C1432.84 598.528 1432.84 598.517 1432.84 598.503C1432.84 598.476 1432.84 598.434 1432.84 598.38C1432.84 598.271 1432.83 598.109 1432.83 597.895C1432.83 597.468 1432.83 596.835 1432.83 596.01C1432.83 594.361 1432.82 591.946 1432.8 588.877C1432.76 582.741 1432.68 573.99 1432.53 563.531C1432.22 542.616 1431.6 514.85 1430.37 487.477C1429.14 460.138 1427.28 433.061 1424.48 413.58C1423.09 403.906 1421.42 395.795 1419.37 390.43C1418.37 387.845 1417.07 385.296 1415.2 383.674C1414.19 382.797 1412.85 382.055 1411.21 381.923C1409.55 381.791 1408.09 382.319 1406.92 383.091L1409.13 386.441L1411.34 389.791C1411.4 389.754 1411.13 389.939 1410.63 389.899C1410.15 389.86 1409.92 389.647 1409.99 389.707C1410.29 389.96 1411.01 390.918 1411.9 393.248C1413.61 397.712 1415.18 405.058 1416.56 414.659C1419.31 433.729 1421.15 460.478 1422.38 487.776C1423.61 515.038 1424.22 542.716 1424.53 563.587C1424.68 574.02 1424.76 582.748 1424.8 588.866C1424.82 591.925 1424.83 594.331 1424.83 595.972C1424.83 596.792 1424.84 597.421 1424.84 597.844C1424.84 598.056 1424.84 598.216 1424.84 598.323C1424.84 598.377 1424.84 598.417 1424.84 598.444C1424.84 598.457 1424.84 598.467 1424.84 598.474C1424.84 598.477 1424.84 598.48 1424.84 598.481C1424.84 598.483 1424.84 598.484 1428.84 598.515ZM1409.13 386.441L1406.92 383.091C1406.65 383.269 1406.8 383.088 1407.29 383.07C1407.94 383.047 1408.53 383.316 1408.88 383.644C1409.13 383.878 1409.1 383.985 1408.96 383.621C1408.83 383.287 1408.68 382.736 1408.55 381.908C1408.01 378.469 1408.14 372.512 1408.92 364.471C1410.44 348.581 1414.32 326.066 1418.85 303C1423.37 279.97 1428.5 256.525 1432.51 238.829C1434.51 229.983 1436.23 222.579 1437.45 217.386C1438.06 214.79 1438.54 212.748 1438.88 211.355C1439.04 210.658 1439.17 210.124 1439.26 209.765C1439.3 209.585 1439.33 209.449 1439.35 209.358C1439.37 209.313 1439.37 209.278 1439.38 209.256C1439.38 209.244 1439.38 209.236 1439.38 209.23C1439.39 209.227 1439.39 209.225 1439.39 209.224C1439.39 209.223 1439.39 209.222 1435.5 208.256C1431.61 207.289 1431.61 207.29 1431.61 207.292C1431.61 207.293 1431.61 207.296 1431.61 207.299C1431.61 207.305 1431.6 207.314 1431.6 207.326C1431.6 207.349 1431.59 207.384 1431.58 207.43C1431.55 207.523 1431.52 207.661 1431.48 207.842C1431.39 208.205 1431.26 208.743 1431.1 209.443C1430.76 210.844 1430.28 212.895 1429.66 215.499C1428.44 220.709 1426.71 228.134 1424.71 237.004C1420.69 254.739 1415.54 278.266 1411 301.4C1406.47 324.497 1402.52 347.337 1400.95 363.644C1400.18 371.702 1399.94 378.554 1400.65 383.09C1400.84 384.256 1401.1 385.397 1401.49 386.429C1401.88 387.43 1402.48 388.577 1403.47 389.5C1404.57 390.517 1406.02 391.125 1407.65 391.066C1409.12 391.013 1410.38 390.422 1411.34 389.791L1409.13 386.441Z" fill="#00FF04"/>
<path d="M97.6131 597.764L96.8624 601.693L104.72 603.194L105.471 599.265L101.542 598.515L97.6131 597.764ZM101.542 43.3332C113.324 43.3332 122.875 33.782 122.875 21.9999C122.875 10.2178 113.324 0.666571 101.542 0.666571C89.76 0.666571 80.2087 10.2178 80.2087 21.9999C80.2087 33.782 89.76 43.3332 101.542 43.3332ZM101.542 598.515C105.471 599.265 105.471 599.264 105.472 599.261C105.472 599.259 105.473 599.256 105.474 599.252C105.475 599.243 105.478 599.231 105.481 599.214C105.487 599.181 105.496 599.132 105.509 599.068C105.533 598.938 105.569 598.747 105.617 598.495C105.711 597.99 105.851 597.243 106.03 596.269C106.389 594.321 106.908 591.463 107.55 587.821C108.834 580.535 110.611 570.105 112.585 557.515C116.533 532.341 121.274 498.499 124.436 463.872C127.595 429.286 129.196 393.74 126.802 365.225C125.607 350.982 123.4 338.284 119.783 328.269C116.201 318.351 110.982 310.37 103.28 306.654L101.542 310.257L99.8042 313.86C104.709 316.226 108.946 321.814 112.258 330.986C115.536 340.061 117.662 351.973 118.831 365.894C121.165 393.709 119.614 428.706 116.469 463.144C113.328 497.541 108.614 531.201 104.682 556.275C102.716 568.809 100.948 579.188 99.6711 586.432C99.0328 590.053 98.5175 592.89 98.1622 594.82C97.9846 595.785 97.8469 596.523 97.7538 597.019C97.7073 597.267 97.6719 597.454 97.6483 597.579C97.6365 597.641 97.6276 597.688 97.6217 597.719C97.6188 597.734 97.6166 597.746 97.6151 597.753C97.6144 597.757 97.6139 597.76 97.6136 597.762C97.6132 597.763 97.6131 597.764 101.542 598.515ZM101.542 310.257L103.28 306.654C98.3753 304.289 94.1383 298.7 90.8258 289.528C87.5484 280.454 85.422 268.541 84.2536 254.62C81.9192 226.806 83.4698 191.808 86.6149 157.37C89.7561 122.973 94.4704 89.313 98.4023 64.239C100.368 51.7056 102.136 41.3259 103.413 34.0826C104.051 30.461 104.567 27.624 104.922 25.6943C105.1 24.7294 105.237 23.9915 105.33 23.4957C105.377 23.2478 105.412 23.0605 105.436 22.9357C105.448 22.8733 105.457 22.8265 105.462 22.7956C105.465 22.7801 105.468 22.7686 105.469 22.7611C105.47 22.7573 105.47 22.7547 105.471 22.7528C105.471 22.7512 105.471 22.7506 101.542 21.9999C97.6131 21.2492 97.6129 21.2506 97.6124 21.253C97.612 21.2552 97.6113 21.2586 97.6105 21.2628C97.6089 21.2714 97.6065 21.2839 97.6034 21.3004C97.5971 21.3334 97.5878 21.3823 97.5756 21.4469C97.5511 21.576 97.5149 21.7676 97.4676 22.0198C97.3729 22.5243 97.2335 23.2714 97.0542 24.2456C96.6954 26.1939 96.1765 29.051 95.5344 32.6939C94.2503 39.9793 92.4732 50.4093 90.4989 62.9997C86.5514 88.173 81.8103 122.016 78.648 156.643C75.4895 191.228 73.8884 226.775 76.2816 255.289C77.4771 269.533 79.6844 282.231 83.3015 292.246C86.8834 302.164 92.1018 310.144 99.8042 313.86L101.542 310.257Z" fill="#00FF04"/>
</svg>
