<svg width="121" height="120" viewBox="0 0 121 120" fill="none" xmlns="http://www.w3.org/2000/svg">
<path d="M0.333333 48C0.333333 53.891 5.10896 58.6667 11 58.6667C16.891 58.6667 21.6667 53.891 21.6667 48C21.6667 42.109 16.891 37.3333 11 37.3333C5.10896 37.3333 0.333333 42.109 0.333333 48ZM98.8333 48C98.8333 53.891 103.609 58.6667 109.5 58.6667C115.391 58.6667 120.167 53.891 120.167 48C120.167 42.109 115.391 37.3333 109.5 37.3333C103.609 37.3333 98.8333 42.109 98.8333 48ZM11 48H13C13 23.6995 32.6995 4 57 4V2V0C30.4903 0 9 21.4903 9 48H11ZM57 2V4C69.1903 4 81.8696 8.95494 91.4935 17.007C101.116 25.0575 107.5 36.0372 107.5 48H109.5H111.5C111.5 34.5577 104.337 22.5374 94.0603 13.9392C83.7855 5.34251 70.2148 0 57 0V2Z" fill="#FF0B0B"/>
<path d="M0.333333 70C0.333333 64.109 5.10896 59.3333 11 59.3333C16.891 59.3333 21.6667 64.109 21.6667 70C21.6667 75.891 16.891 80.6667 11 80.6667C5.10896 80.6667 0.333333 75.891 0.333333 70ZM98.8333 70C98.8333 64.109 103.609 59.3333 109.5 59.3333C115.391 59.3333 120.167 64.109 120.167 70C120.167 75.891 115.391 80.6667 109.5 80.6667C103.609 80.6667 98.8333 75.891 98.8333 70ZM11 70H13C13 95.4862 32.7788 116 57 116V118V120C30.411 120 9 97.5332 9 70H11ZM57 118V116C69.1651 116 81.834 110.84 91.4616 102.435C101.083 94.0345 107.5 82.5489 107.5 70H109.5H111.5C111.5 83.9608 104.369 96.4752 94.0923 105.448C83.8211 114.415 70.24 120 57 120V118Z" fill="#FF0B0B"/>
</svg>
