<svg width="113" height="117" viewBox="0 0 113 117" fill="none" xmlns="http://www.w3.org/2000/svg">
<path d="M4.22671 3.23345C-0.111494 7.21896 -0.397414 13.9667 3.58809 18.3049C7.5736 22.6431 14.3213 22.929 18.6595 18.9435C22.9977 14.958 23.2836 8.21027 19.2981 3.87207C15.3126 -0.466141 8.56492 -0.75206 4.22671 3.23345ZM45.494 49.7827L46.6291 48.136L46.3942 47.9741L46.1235 47.8843L45.494 49.7827ZM91.6756 98.4212C87.3374 102.407 87.0515 109.154 91.037 113.493C95.0225 117.831 101.77 118.117 106.108 114.131C110.447 110.146 110.733 103.398 106.747 99.0598C102.762 94.7216 96.0138 94.4357 91.6756 98.4212ZM11.4431 11.0885L9.63015 11.933C11.5622 16.0808 12.8398 19.9171 14.1639 23.6389C15.4747 27.3234 16.8352 30.9069 18.9122 34.2772C23.1523 41.1576 30.1539 46.8029 44.8645 51.681L45.494 49.7827L46.1235 47.8843C31.9628 43.1886 25.903 37.9968 22.3175 32.1787C20.4816 29.1996 19.2383 25.9685 17.9325 22.2981C16.6399 18.665 15.288 14.6062 13.2561 10.244L11.4431 11.0885ZM45.494 49.7827L44.359 51.4294C59.2776 61.7124 69.1428 69.9371 76.9308 78.4254C84.7138 86.9084 90.4855 95.7228 97.1602 107.277L98.892 106.276L100.624 105.276C93.891 93.6214 87.9494 84.5183 79.8782 75.7212C71.8118 66.9294 61.6818 58.5114 46.6291 48.136L45.494 49.7827Z" fill="#00FF04"/>
<path d="M108.773 3.29714C113.111 7.28265 113.397 14.0304 109.412 18.3686C105.426 22.7068 98.6787 22.9927 94.3405 19.0072C90.0023 15.0217 89.7164 8.27396 93.7019 3.93576C97.6874 -0.402451 104.435 -0.68837 108.773 3.29714ZM67.506 49.8464L66.3709 48.1996L66.6058 48.0378L66.8765 47.948L67.506 49.8464ZM21.3244 98.4849C25.6626 102.47 25.9485 109.218 21.963 113.556C17.9775 117.895 11.2298 118.18 6.89158 114.195C2.55338 110.209 2.26746 103.462 6.25296 99.1235C10.2385 94.7853 16.9862 94.4994 21.3244 98.4849ZM101.557 11.1522L103.37 11.9966C101.438 16.1445 100.16 19.9808 98.8361 23.7026C97.5253 27.3871 96.1648 30.9706 94.0878 34.3409C89.8477 41.2213 82.8461 46.8666 68.1355 51.7447L67.506 49.8464L66.8765 47.948C81.0372 43.2523 87.097 38.0605 90.6825 32.2423C92.5184 29.2633 93.7617 26.0322 95.0675 22.3618C96.3601 18.7287 97.712 14.6699 99.7439 10.3077L101.557 11.1522ZM67.506 49.8464L68.641 51.4931C53.7224 61.7761 43.8572 70.0008 36.0692 78.4891C28.2862 86.9721 22.5145 95.7865 15.8398 107.34L14.108 106.34L12.3762 105.339C19.109 93.6851 25.0506 84.582 33.1218 75.7849C41.1882 66.9931 51.3182 58.5751 66.3709 48.1996L67.506 49.8464Z" fill="#00FF04"/>
</svg>
