<svg width="1737" height="615" viewBox="0 0 1737 615" fill="none" xmlns="http://www.w3.org/2000/svg">
<path d="M1621.44 609.705L1621.64 613.7L1629.63 613.3L1629.43 609.305L1625.44 609.505L1621.44 609.705ZM1625.44 153.645C1637.22 153.645 1646.77 144.094 1646.77 132.312C1646.77 120.53 1637.22 110.979 1625.44 110.979C1613.66 110.979 1604.11 120.53 1604.11 132.312C1604.11 144.094 1613.66 153.645 1625.44 153.645ZM1625.44 609.505C1629.43 609.305 1629.43 609.305 1629.43 609.304C1629.43 609.303 1629.43 609.302 1629.43 609.3C1629.43 609.296 1629.43 609.29 1629.43 609.282C1629.43 609.266 1629.43 609.241 1629.43 609.208C1629.43 609.141 1629.42 609.04 1629.41 608.907C1629.4 608.639 1629.38 608.24 1629.36 607.716C1629.32 606.667 1629.25 605.118 1629.18 603.124C1629.03 599.137 1628.85 593.372 1628.7 586.278C1628.42 572.086 1628.29 552.588 1628.93 531.356C1629.56 510.113 1630.96 487.19 1633.71 466.131C1636.47 445.002 1640.56 426.043 1646.45 412.568L1642.79 410.965L1639.12 409.362C1632.77 423.889 1628.57 443.747 1625.78 465.095C1622.98 486.512 1621.57 509.724 1620.93 531.116C1620.29 552.518 1620.42 572.155 1620.71 586.439C1620.85 593.583 1621.03 599.392 1621.18 603.418C1621.26 605.432 1621.32 606.999 1621.37 608.066C1621.39 608.599 1621.41 609.007 1621.42 609.283C1621.43 609.42 1621.44 609.525 1621.44 609.596C1621.44 609.631 1621.44 609.658 1621.44 609.676C1621.44 609.686 1621.44 609.693 1621.44 609.697C1621.44 609.7 1621.44 609.702 1621.44 609.703C1621.44 609.705 1621.44 609.705 1625.44 609.505ZM1642.79 410.965L1646.45 412.568C1649.75 405.014 1651.83 394.937 1653.05 383.33C1654.27 371.667 1654.65 358.203 1654.41 343.733C1653.92 314.792 1650.97 281.561 1647.27 250.169C1643.56 218.762 1639.09 189.119 1635.54 167.334C1633.77 156.439 1632.23 147.505 1631.13 141.292C1630.58 138.185 1630.14 135.759 1629.84 134.107C1629.69 133.282 1629.57 132.65 1629.49 132.223C1629.45 132.01 1629.42 131.849 1629.4 131.74C1629.39 131.685 1629.38 131.644 1629.38 131.616C1629.38 131.602 1629.37 131.592 1629.37 131.585C1629.37 131.581 1629.37 131.578 1629.37 131.577C1629.37 131.575 1629.37 131.573 1625.44 132.312C1621.51 133.051 1621.51 133.051 1621.51 133.053C1621.51 133.054 1621.51 133.057 1621.51 133.06C1621.51 133.066 1621.51 133.076 1621.52 133.089C1621.52 133.115 1621.53 133.155 1621.54 133.208C1621.56 133.313 1621.59 133.472 1621.63 133.682C1621.7 134.101 1621.82 134.726 1621.97 135.545C1622.27 137.183 1622.7 139.594 1623.25 142.685C1624.34 148.867 1625.88 157.765 1627.65 168.619C1631.18 190.33 1635.63 219.851 1639.32 251.107C1643.02 282.378 1645.93 315.31 1646.41 343.866C1646.64 358.145 1646.27 371.263 1645.09 382.496C1643.91 393.785 1641.94 402.915 1639.12 409.362L1642.79 410.965Z" fill="#00FF04"/>
<path d="M110.28 609.059L109.43 612.976L117.245 614.607L118.096 610.69L114.188 609.875L110.28 609.059ZM104.833 119.926C116.61 119.594 125.975 109.776 125.75 97.9956C125.525 86.2157 115.796 76.9352 104.018 77.267C92.2408 77.5988 82.8756 87.4173 83.1006 99.1973C83.3255 110.977 93.0553 120.258 104.833 119.926ZM114.188 609.875C118.096 610.69 118.096 610.689 118.096 610.687C118.097 610.685 118.097 610.681 118.098 610.677C118.1 610.669 118.103 610.657 118.106 610.641C118.113 610.608 118.124 610.561 118.137 610.497C118.165 610.37 118.205 610.182 118.259 609.934C118.366 609.438 118.523 608.703 118.727 607.748C119.135 605.838 119.728 603.044 120.467 599.507C121.947 592.432 124.016 582.382 126.376 570.474C131.093 546.665 136.976 515.399 141.626 485.63C146.262 455.951 149.721 427.465 149.492 409.359C149.435 404.815 149.146 400.788 148.543 397.493C147.967 394.351 147.004 391.25 145.148 389.146C144.142 388.006 142.792 387.068 141.081 386.715C139.39 386.366 137.759 386.674 136.327 387.281C133.633 388.425 131.025 390.888 128.458 394.038L131.548 396.549L134.638 399.061C137.007 396.155 138.582 394.988 139.393 394.644C139.715 394.507 139.667 394.608 139.398 394.552C139.11 394.493 139.023 394.35 139.13 394.471C139.498 394.888 140.157 396.174 140.675 399.004C141.165 401.681 141.44 405.212 141.495 409.533C141.713 426.884 138.364 454.757 133.724 484.464C129.098 514.081 123.238 545.229 118.531 568.987C116.178 580.863 114.114 590.884 112.639 597.936C111.902 601.462 111.312 604.245 110.906 606.145C110.703 607.095 110.547 607.825 110.441 608.316C110.388 608.562 110.348 608.748 110.321 608.873C110.307 608.935 110.297 608.982 110.29 609.013C110.287 609.029 110.284 609.04 110.283 609.048C110.282 609.052 110.281 609.055 110.281 609.056C110.28 609.058 110.28 609.059 114.188 609.875ZM131.548 396.549L128.458 394.038C126.201 396.807 124.886 397.171 124.535 397.192C124.451 397.197 123.688 397.249 122.311 395.315C120.957 393.412 119.558 390.291 118.211 385.848C116.882 381.463 115.676 376.04 114.594 369.72C110.255 344.373 108.1 305.873 107.178 265.61C106.257 225.413 106.568 183.686 107.109 151.996C107.38 136.154 107.708 122.826 107.969 113.461C108.099 108.779 108.213 105.087 108.293 102.567C108.334 101.307 108.366 100.34 108.388 99.6882C108.399 99.3624 108.408 99.1156 108.413 98.9504C108.416 98.8679 108.418 98.8057 108.42 98.7644C108.421 98.7437 108.421 98.7282 108.421 98.718C108.422 98.7128 108.422 98.7091 108.422 98.7065C108.422 98.7041 108.422 98.703 104.425 98.5965C100.429 98.4899 100.429 98.4914 100.429 98.4943C100.429 98.497 100.428 98.5012 100.428 98.5066C100.428 98.5174 100.427 98.5334 100.427 98.5547C100.425 98.5972 100.423 98.6605 100.42 98.7443C100.414 98.9117 100.405 99.161 100.394 99.4892C100.372 100.146 100.34 101.118 100.299 102.383C100.218 104.913 100.104 108.616 99.9738 113.311C99.7125 122.7 99.3835 136.056 99.1122 151.931C98.5697 183.676 98.2576 225.52 99.1818 265.866C100.105 306.146 102.263 345.162 106.711 371.14C107.825 377.651 109.097 383.423 110.555 388.233C111.995 392.985 113.694 397.061 115.781 399.994C117.845 402.895 120.866 405.422 124.938 405.18C128.745 404.953 131.96 402.347 134.638 399.061L131.548 396.549Z" fill="#00FF04"/>
<path d="M1523.5 609.473L1523.5 613.474L1531.5 613.538L1531.5 609.538L1527.5 609.505L1523.5 609.473ZM1533.88 233.137C1545.66 233.431 1555.37 224.12 1555.57 212.34C1555.77 200.56 1546.38 190.771 1534.61 190.476C1522.83 190.182 1513.12 199.493 1512.92 211.273C1512.72 223.054 1522.1 232.842 1533.88 233.137ZM1527.5 609.505C1531.5 609.538 1531.5 609.537 1531.5 609.535C1531.5 609.533 1531.5 609.53 1531.5 609.526C1531.5 609.519 1531.5 609.509 1531.5 609.494C1531.5 609.466 1531.5 609.424 1531.5 609.369C1531.5 609.258 1531.5 609.092 1531.5 608.875C1531.5 608.439 1531.5 607.794 1531.5 606.954C1531.49 605.274 1531.48 602.812 1531.46 599.686C1531.43 593.432 1531.35 584.515 1531.19 573.857C1530.88 552.544 1530.26 524.25 1529.01 496.356C1527.76 468.497 1525.88 440.907 1523.05 421.061C1521.64 411.203 1519.96 402.947 1517.88 397.491C1516.88 394.862 1515.57 392.278 1513.69 390.637C1512.67 389.749 1511.32 388.994 1509.67 388.861C1508 388.726 1506.52 389.264 1505.34 390.046L1507.57 393.389L1509.79 396.731C1509.85 396.69 1509.59 396.877 1509.09 396.836C1508.6 396.797 1508.38 396.582 1508.46 396.649C1508.77 396.919 1509.5 397.909 1510.41 400.288C1512.15 404.848 1513.74 412.344 1515.13 422.129C1517.91 441.568 1519.77 468.832 1521.02 496.65C1522.26 524.433 1522.88 552.64 1523.19 573.91C1523.35 584.542 1523.43 593.436 1523.47 599.671C1523.49 602.788 1523.49 605.241 1523.5 606.913C1523.5 607.749 1523.5 608.39 1523.5 608.821C1523.5 609.037 1523.5 609.201 1523.5 609.31C1523.5 609.364 1523.5 609.406 1523.5 609.433C1523.5 609.446 1523.5 609.457 1523.5 609.463C1523.5 609.467 1523.5 609.469 1523.5 609.471C1523.5 609.473 1523.5 609.473 1527.5 609.505ZM1507.57 393.389L1505.34 390.046C1505.06 390.23 1505.21 390.048 1505.71 390.03C1506.36 390.006 1506.94 390.279 1507.29 390.605C1507.54 390.834 1507.5 390.932 1507.36 390.552C1507.22 390.203 1507.07 389.634 1506.94 388.786C1506.39 385.267 1506.52 379.185 1507.3 370.991C1508.85 354.792 1512.78 331.844 1517.35 308.337C1521.93 284.867 1527.12 260.974 1531.17 242.941C1533.2 233.926 1534.94 226.38 1536.18 221.088C1536.79 218.443 1537.28 216.361 1537.62 214.941C1537.79 214.232 1537.92 213.687 1538 213.321C1538.05 213.138 1538.08 212.999 1538.1 212.906C1538.11 212.86 1538.12 212.825 1538.13 212.802C1538.13 212.79 1538.13 212.782 1538.13 212.776C1538.13 212.773 1538.13 212.771 1538.13 212.77C1538.13 212.768 1538.13 212.768 1534.24 211.807C1530.35 210.846 1530.35 210.846 1530.35 210.848C1530.35 210.85 1530.35 210.852 1530.35 210.855C1530.35 210.861 1530.35 210.87 1530.35 210.882C1530.34 210.906 1530.33 210.942 1530.32 210.989C1530.3 211.084 1530.26 211.224 1530.22 211.409C1530.13 211.779 1530 212.327 1529.83 213.04C1529.5 214.467 1529 216.557 1528.39 219.211C1527.15 224.52 1525.4 232.087 1523.37 241.125C1519.31 259.198 1514.09 283.173 1509.5 306.746C1504.92 330.283 1500.93 353.555 1499.34 370.166C1498.56 378.378 1498.32 385.349 1499.04 389.957C1499.22 391.141 1499.49 392.297 1499.88 393.34C1500.27 394.351 1500.87 395.508 1501.87 396.44C1502.97 397.467 1504.43 398.086 1506.07 398.026C1507.56 397.971 1508.82 397.371 1509.79 396.731L1507.57 393.389Z" fill="#00FF04"/>
<path d="M32.4489 594.886L33.4091 598.771L41.1748 596.866L40.2146 592.981L36.3317 593.933L32.4489 594.886ZM44.2913 187.87C56.0707 188.125 65.8069 178.782 66.0378 167.002C66.2687 155.222 56.9069 145.466 45.1275 145.212C33.3482 144.957 23.612 154.3 23.3811 166.08C23.1502 177.86 32.512 187.616 44.2913 187.87ZM36.3317 593.933C40.2146 592.981 40.2145 592.98 40.2142 592.979C40.2138 592.978 40.2133 592.975 40.2126 592.973C40.2111 592.967 40.2089 592.958 40.206 592.946C40.2 592.922 40.1911 592.885 40.1791 592.837C40.1552 592.739 40.1195 592.594 40.0723 592.401C39.9779 592.015 39.838 591.44 39.6563 590.689C39.2931 589.185 38.7632 586.975 38.098 584.149C36.7677 578.499 34.8967 570.393 32.7365 560.581C28.4148 540.951 22.9407 514.514 18.321 487.254C13.6965 459.966 9.94976 431.977 9.04709 409.2C8.59533 397.8 8.86301 387.854 10.0388 380.018C11.2443 371.983 13.297 366.964 15.7354 364.564L12.9264 361.71L10.1174 358.857C5.72139 363.185 3.37969 370.47 2.12763 378.815C0.845789 387.358 0.592674 397.867 1.0537 409.5C1.97661 432.788 5.78981 461.172 10.4339 488.576C15.0827 516.007 20.5857 542.58 24.9241 562.286C27.0939 572.142 28.9736 580.286 30.3115 585.968C30.9805 588.81 31.5141 591.036 31.8808 592.553C32.0641 593.312 32.2058 593.893 32.3017 594.286C32.3497 594.482 32.3863 594.632 32.411 594.732C32.4234 594.782 32.4327 594.82 32.4391 594.846C32.4422 594.859 32.4446 594.868 32.4463 594.875C32.4471 594.878 32.4477 594.881 32.4482 594.883C32.4486 594.885 32.4489 594.886 36.3317 593.933ZM12.9264 361.71L15.7354 364.564C23.6043 356.816 27.5335 343.131 29.8128 327.451C32.1274 311.527 32.8687 292.416 33.5441 272.864C34.223 253.213 34.8361 233.065 36.8504 214.717C38.8712 196.309 42.2636 180.156 48.2738 168.363L44.7094 166.541L41.145 164.719C34.4581 177.839 30.9462 195.175 28.8985 213.828C26.8443 232.539 26.2246 253.023 25.5492 272.571C24.8705 292.219 24.1361 310.875 21.8963 326.284C19.6213 341.935 15.9174 353.147 10.1174 358.857L12.9264 361.71Z" fill="#00FF04"/>
<path d="M1713.33 610.188L1714.01 614.129L1721.89 612.761L1721.22 608.82L1717.27 609.504L1713.33 610.188ZM1715.32 105.305C1727.1 105.237 1736.61 95.6316 1736.57 83.8496C1736.52 72.0676 1726.93 62.5712 1715.15 62.6387C1703.37 62.7062 1693.85 72.3121 1693.9 84.0941C1693.95 95.8761 1703.53 105.373 1715.32 105.305ZM1717.27 609.504C1721.22 608.82 1721.22 608.82 1721.22 608.819C1721.22 608.818 1721.22 608.817 1721.22 608.815C1721.21 608.812 1721.21 608.806 1721.21 608.798C1721.21 608.782 1721.21 608.758 1721.2 608.725C1721.19 608.659 1721.17 608.559 1721.15 608.425C1721.1 608.159 1721.04 607.759 1720.95 607.232C1720.78 606.177 1720.53 604.614 1720.22 602.588C1719.61 598.536 1718.75 592.635 1717.8 585.26C1715.89 570.509 1713.61 549.873 1712.08 526.349C1709.03 479.191 1709.07 420.849 1721.14 375.018L1717.27 374.006L1713.41 372.994C1700.99 420.123 1701.03 479.53 1704.1 526.881C1705.64 550.611 1707.94 571.42 1709.86 586.299C1710.82 593.74 1711.69 599.702 1712.31 603.808C1712.63 605.861 1712.88 607.45 1713.06 608.529C1713.14 609.069 1713.21 609.481 1713.26 609.759C1713.28 609.899 1713.3 610.004 1713.31 610.076C1713.32 610.112 1713.32 610.139 1713.33 610.158C1713.33 610.168 1713.33 610.175 1713.33 610.18C1713.33 610.182 1713.33 610.184 1713.33 610.186C1713.33 610.187 1713.33 610.188 1717.27 609.504ZM1717.27 374.006L1721.14 375.018C1733.57 327.847 1733 254.744 1729.43 193.888C1727.64 163.365 1725.08 135.762 1722.97 115.79C1721.92 105.802 1720.98 97.72 1720.3 92.1312C1719.96 89.3367 1719.68 87.1654 1719.49 85.6909C1719.4 84.9537 1719.32 84.3906 1719.27 84.0109C1719.25 83.821 1719.23 83.677 1719.22 83.5799C1719.21 83.5314 1719.21 83.4947 1719.2 83.4698C1719.2 83.4573 1719.2 83.4479 1719.2 83.4414C1719.2 83.4382 1719.2 83.4356 1719.2 83.4339C1719.2 83.4321 1719.2 83.431 1715.23 83.9718C1711.27 84.5127 1711.27 84.5131 1711.27 84.5142C1711.27 84.5156 1711.27 84.5175 1711.27 84.5203C1711.27 84.5258 1711.27 84.5343 1711.27 84.5458C1711.28 84.5687 1711.28 84.6035 1711.29 84.6501C1711.3 84.7432 1711.32 84.8833 1711.34 85.0692C1711.39 85.4409 1711.46 85.9958 1711.56 86.7246C1711.74 88.1823 1712.02 90.3359 1712.35 93.1117C1713.03 98.6635 1713.97 106.704 1715.02 116.645C1717.12 136.529 1719.66 164.004 1721.44 194.371C1725.02 255.291 1725.47 327.206 1713.41 372.994L1717.27 374.006Z" fill="#00FF04"/>
<path d="M180.738 608.76L179.992 612.69L187.852 614.181L188.598 610.251L184.668 609.505L180.738 608.76ZM184.668 43.3332C196.45 43.3332 206.001 33.7819 206.001 21.9999C206.001 10.2178 196.45 0.666523 184.668 0.666523C172.886 0.666524 163.335 10.2178 163.335 21.9999C163.335 33.7819 172.886 43.3332 184.668 43.3332ZM184.668 609.505C188.598 610.251 188.598 610.249 188.598 610.247C188.599 610.245 188.6 610.241 188.6 610.237C188.602 610.228 188.604 610.215 188.608 610.199C188.614 610.165 188.623 610.115 188.636 610.049C188.66 609.918 188.697 609.723 188.745 609.466C188.841 608.952 188.982 608.191 189.163 607.198C189.526 605.213 190.051 602.301 190.701 598.589C192 591.166 193.797 580.537 195.795 567.708C199.788 542.056 204.585 507.57 207.784 472.286C210.979 437.043 212.598 400.826 210.178 371.777C208.969 357.267 206.736 344.337 203.081 334.142C199.462 324.048 194.193 315.933 186.416 312.155L184.668 315.753L182.92 319.35C187.898 321.769 192.194 327.482 195.551 336.842C198.87 346.101 201.023 358.251 202.205 372.442C204.568 400.795 202.998 436.467 199.816 471.564C196.638 506.619 191.868 540.924 187.89 566.477C185.901 579.25 184.112 589.828 182.82 597.21C182.174 600.901 181.653 603.793 181.294 605.759C181.114 606.743 180.974 607.495 180.88 608C180.833 608.253 180.797 608.444 180.774 608.571C180.762 608.635 180.753 608.682 180.747 608.714C180.744 608.73 180.741 608.741 180.74 608.749C180.739 608.753 180.739 608.756 180.738 608.757C180.738 608.759 180.738 608.76 184.668 609.505ZM184.668 315.753L186.416 312.155C181.438 309.736 177.141 304.023 173.785 294.663C170.465 285.404 168.313 273.254 167.13 259.064C164.768 230.71 166.337 195.038 169.519 159.941C172.698 124.886 177.468 90.5814 181.446 65.028C183.434 52.255 185.224 41.6768 186.515 34.2948C187.161 30.6039 187.683 27.7125 188.042 25.7458C188.222 24.7624 188.361 24.0103 188.455 23.505C188.502 23.2523 188.538 23.0614 188.562 22.9341C188.574 22.8705 188.583 22.8228 188.589 22.7912C188.592 22.7754 188.594 22.7637 188.596 22.7561C188.596 22.7522 188.597 22.7495 188.597 22.7476C188.598 22.746 188.598 22.7453 184.668 21.9999C180.738 21.2544 180.738 21.2558 180.737 21.2582C180.737 21.2604 180.736 21.2639 180.735 21.2682C180.734 21.2769 180.731 21.2897 180.728 21.3065C180.722 21.3401 180.712 21.3899 180.7 21.4557C180.675 21.5872 180.639 21.7824 180.591 22.0394C180.495 22.5534 180.354 23.3146 180.173 24.3072C179.81 26.2925 179.285 29.2038 178.635 32.9158C177.336 40.3396 175.538 50.9678 173.541 63.7974C169.547 89.4494 164.751 123.935 161.552 159.219C158.357 194.462 156.738 230.679 159.158 259.728C160.367 274.238 162.599 287.169 166.255 297.363C169.874 307.457 175.143 315.572 182.92 319.35L184.668 315.753Z" fill="#00FF04"/>
</svg>
