<svg width="151" height="153" viewBox="0 0 151 153" fill="none" xmlns="http://www.w3.org/2000/svg">
<rect width="151" height="153" fill="#00FF54"/>
<path d="M110.104 41.4375H110.167M44.0417 12.75H106.958C124.332 12.75 138.417 27.0209 138.417 44.625V108.375C138.417 125.979 124.332 140.25 106.958 140.25H44.0417C26.6677 140.25 12.5834 125.979 12.5834 108.375V44.625C12.5834 27.0209 26.6677 12.75 44.0417 12.75ZM100.667 72.4837C101.443 77.7893 100.549 83.2079 98.1108 87.9687C95.6728 92.7296 91.8153 96.5903 87.0869 99.0017C82.3586 101.413 77.0003 102.252 71.774 101.4C66.5478 100.548 61.7198 98.048 57.9767 94.2554C54.2337 90.4628 51.7662 85.5708 50.9252 80.2754C50.0842 74.9799 50.9126 69.5506 53.2925 64.7596C55.6724 59.9687 59.4826 56.0601 64.1812 53.5898C68.8798 51.1195 74.2276 50.2133 79.4638 51C84.8049 51.8025 89.7497 54.3243 93.5678 58.193C97.3858 62.0616 99.8747 67.0719 100.667 72.4837Z" stroke="#1E1E1E" stroke-width="4" stroke-linecap="round" stroke-linejoin="round"/>
</svg>
