<svg width="511" height="560" viewBox="0 0 511 560" fill="none" xmlns="http://www.w3.org/2000/svg">
<rect width="511" height="560" fill="#1E1E1E"/>
<ellipse cx="245" cy="138" rx="84" ry="72" fill="#AFF4C6"/>
<ellipse cx="246" cy="297" rx="96" ry="88" fill="#B3B3B3"/>
<path d="M288.15 391.976L315 546" stroke="#B3B3B3" stroke-width="25" stroke-linecap="round" stroke-linejoin="bevel"/>
<path d="M204.425 392.658L181 547" stroke="#B3B3B3" stroke-width="26" stroke-linecap="round" stroke-linejoin="bevel"/>
<path d="M352.5 297H384.25C387.426 297 390 294.426 390 291.25V291.25C390 288.074 392.574 285.5 395.75 285.5H405.75C408.926 285.5 411.5 282.926 411.5 279.75V279.375C411.5 276.406 413.906 274 416.875 274V274C419.844 274 422.25 276.406 422.25 279.375V285.5C422.25 291.851 427.399 297 433.75 297H440.125C446.476 297 451.625 291.851 451.625 285.5V285.5C451.625 279.149 456.774 274 463.125 274H481C490.941 274 499 282.059 499 292V302C499 306.418 502.582 310 507 310V310" stroke="#B3B3B3" stroke-width="8" stroke-linecap="round" stroke-linejoin="bevel"/>
<path d="M139.5 297H107.75C104.574 297 102 294.426 102 291.25V291.25C102 288.074 99.4256 285.5 96.25 285.5H65.25C62.0744 285.5 59.5 282.926 59.5 279.75V279.75C59.5 276.574 56.9256 274 53.75 274H28C14.7452 274 4 284.745 4 298V308" stroke="#B3B3B3" stroke-width="8" stroke-linecap="round" stroke-linejoin="bevel"/>
<ellipse cx="205" cy="126" rx="20" ry="28" fill="#B3B3B3"/>
<circle cx="193" cy="125" r="8" fill="#1E1E1E"/>
<path d="M289 2V24.0826C289 30.2317 284.015 35.2165 277.866 35.2165V35.2165C271.717 35.2165 266.732 40.2012 266.732 46.3503V62.4329" stroke="#B3B3B3" stroke-width="4" stroke-linecap="round" stroke-linejoin="bevel"/>
<path d="M193 2V21.6456C193 29.3096 199.213 35.5224 206.877 35.5224V35.5224C214.541 35.5224 220.754 41.7353 220.754 49.3992V63.0448" stroke="#B3B3B3" stroke-width="4" stroke-linecap="round" stroke-linejoin="bevel"/>
<path d="M225 2V24C225 29.5228 229.477 34 235 34V34C240.523 34 245 38.4772 245 44V60" stroke="#B3B3B3" stroke-width="4" stroke-linecap="round" stroke-linejoin="bevel"/>
<path d="M161 34V39.2949C161 48.9467 168.824 56.771 178.476 56.771H179.181C188.444 56.771 195.952 64.2797 195.952 73.542V73.542" stroke="#B3B3B3" stroke-width="4" stroke-linecap="round" stroke-linejoin="bevel"/>
<path d="M321 18V30.2189C321 39.4595 313.509 46.9504 304.268 46.9504V46.9504C295.028 46.9504 287.537 54.4414 287.537 63.6819V69.9008" stroke="#B3B3B3" stroke-width="4" stroke-linecap="round" stroke-linejoin="bevel"/>
<ellipse cx="293" cy="126" rx="20" ry="28" fill="#B3B3B3"/>
<circle cx="281" cy="125" r="8" fill="#1E1E1E"/>
<path d="M223 176H275" stroke="#B3B3B3" stroke-width="4" stroke-linecap="round" stroke-linejoin="bevel"/>
<path d="M249.539 116.233C249.539 122.817 248.051 133.559 245.314 139.718C244.372 141.837 242.986 143.864 240.592 145.061C238.303 146.206 235 144.11 235 148.106C235 151.293 238.534 157.612 242.269 157.612C245.754 157.612 252.44 158.958 254.882 156.245C257.784 153.021 257.112 147.236 256.311 143.632C255.249 138.853 254.012 135.953 254.012 130.771C254.012 125.892 255.131 122.23 255.131 117.351" stroke="#1E1E1E" stroke-width="4" stroke-linecap="round" stroke-linejoin="round"/>
</svg>
