<svg width="229" height="145" viewBox="0 0 229 145" fill="none" xmlns="http://www.w3.org/2000/svg">
<rect width="229" height="105" rx="6" fill="#00FF54"/>
<path d="M44.7969 29.304L44.7649 24.52C44.7649 24.136 44.2849 23.9013 43.3249 23.816V23.192H47.1009V23.768C46.2795 23.864 45.8529 24.0987 45.8209 24.472L45.8049 24.76C45.7835 25.0587 45.7515 26.1093 45.7089 27.912C45.6662 29.7147 45.6449 30.888 45.6449 31.432C45.6449 31.9653 45.5489 32.4827 45.3569 32.984C45.1649 33.4853 44.9195 33.88 44.6209 34.168C44.3329 34.4453 43.9595 34.6693 43.5009 34.84C43.0422 35 42.5995 35.1013 42.1729 35.144C41.7462 35.1973 41.2342 35.224 40.6369 35.224C40.0502 35.224 39.5115 35.128 39.0209 34.936C38.5302 34.744 38.1515 34.5147 37.8849 34.248C37.6182 33.9707 37.3942 33.656 37.2129 33.304C36.9355 32.728 36.7969 32.152 36.7969 31.576C36.7755 27.0427 36.7489 24.664 36.7169 24.44C36.6955 24.216 36.6049 24.0613 36.4449 23.976C36.2849 23.88 35.9542 23.816 35.4529 23.784V23.192H39.8689V23.784C39.5275 23.8053 39.2715 23.832 39.1009 23.864C38.6529 23.96 38.4289 24.1787 38.4289 24.52L38.4449 28.76V30.04C38.4555 30.6267 38.4609 31.1387 38.4609 31.576C38.4609 32.0027 38.5142 32.344 38.6209 32.6C38.7275 32.856 38.8982 33.1173 39.1329 33.384C39.3782 33.64 39.7355 33.8533 40.2049 34.024C40.6742 34.184 41.1969 34.264 41.7729 34.264C42.3489 34.264 42.8129 34.2053 43.1649 34.088C43.5169 33.96 43.7995 33.7893 44.0129 33.576C44.2369 33.352 44.4022 33.0267 44.5089 32.6C44.7009 31.8747 44.7969 30.776 44.7969 29.304ZM47.3543 27.112C47.7916 27.0693 48.2289 26.968 48.6663 26.808C49.1143 26.648 49.4023 26.568 49.5303 26.568C49.6689 26.568 49.7649 26.632 49.8183 26.76C49.8716 26.8773 49.8983 27.096 49.8983 27.416V27.64C51.1249 26.9467 52.0849 26.6 52.7783 26.6C53.4823 26.6 53.9676 26.792 54.2343 27.176C54.5009 27.5493 54.6343 27.9813 54.6343 28.472V33.816C54.6343 34.0507 54.6823 34.2107 54.7783 34.296C54.8849 34.3813 55.1196 34.4347 55.4823 34.456V35H52.2183V34.456C52.6236 34.424 52.8743 34.36 52.9703 34.264C53.0769 34.168 53.1303 33.9973 53.1303 33.752V28.68C53.1303 28.4133 53.0449 28.2107 52.8743 28.072C52.7143 27.9227 52.5436 27.8373 52.3623 27.816C52.1916 27.784 51.9889 27.768 51.7543 27.768C51.5303 27.768 51.2263 27.832 50.8423 27.96C50.4583 28.0773 50.1596 28.2107 49.9463 28.36C49.9356 28.9893 49.9196 29.6453 49.8983 30.328C49.8556 31.7147 49.8343 32.6747 49.8343 33.208C49.8343 33.7307 49.8876 34.0667 49.9943 34.216C50.1009 34.3547 50.3623 34.4347 50.7783 34.456V35H47.4183V34.456C47.7383 34.4133 47.9623 34.3547 48.0903 34.28C48.2289 34.1947 48.3143 34.072 48.3463 33.912C48.3889 33.6347 48.4103 33.3147 48.4103 32.952C48.4103 32.5787 48.3943 31.7147 48.3623 30.36C48.3303 28.9947 48.3089 28.2907 48.2983 28.248C48.2876 28.1947 48.2716 28.1467 48.2503 28.104C48.2396 28.0507 48.2183 28.008 48.1863 27.976C48.1649 27.944 48.1436 27.9173 48.1223 27.896C48.1116 27.8747 48.0849 27.8533 48.0423 27.832C47.9996 27.8107 47.9676 27.8 47.9463 27.8C47.9249 27.7893 47.8823 27.7787 47.8183 27.768C47.7649 27.7573 47.7276 27.7467 47.7063 27.736C47.6423 27.7253 47.5409 27.72 47.4023 27.72L47.3543 27.112ZM62.4819 24.04L62.4659 24.632L61.7779 24.648C61.5539 23.432 61.2179 22.824 60.7699 22.824C60.3859 22.824 60.0232 23.2347 59.6819 24.056C59.3512 24.8773 59.1859 25.7573 59.1859 26.696V26.936H61.3299L61.2819 27.832H59.1859C59.1432 30.072 59.1219 31.5973 59.1219 32.408C59.1219 33.2187 59.1272 33.6667 59.1379 33.752C59.1485 33.8267 59.1592 33.896 59.1699 33.96C59.1805 34.024 59.2125 34.0773 59.2659 34.12C59.3192 34.152 59.3619 34.184 59.3939 34.216C59.4365 34.2373 59.5165 34.2587 59.6339 34.28C59.7512 34.3013 59.8525 34.3227 59.9379 34.344C60.0232 34.3653 60.1619 34.392 60.3539 34.424C60.5565 34.4453 60.7379 34.472 60.8979 34.504V35H56.4179V34.456C56.8019 34.4027 57.0419 34.3707 57.1379 34.36C57.2339 34.3387 57.3459 34.2853 57.4739 34.2C57.6019 34.1147 57.6712 34.0187 57.6819 33.912C57.6925 33.8053 57.6979 33.5013 57.6979 33C57.6979 32.4987 57.6659 30.776 57.6019 27.832H56.1619V27.288L57.5859 27.048C57.5859 25.7573 57.8952 24.632 58.5139 23.672C59.1325 22.712 60.0232 22.232 61.1859 22.232C61.7085 22.232 62.0552 22.376 62.2259 22.664C62.3965 22.9413 62.4819 23.4 62.4819 24.04ZM62.6136 34.056C62.3896 33.7467 62.203 33.32 62.0536 32.776C61.9043 32.2213 61.8296 31.528 61.8296 30.696C61.8296 29.8533 62.0483 29.0747 62.4856 28.36C62.7736 27.912 63.275 27.5067 63.9896 27.144C64.7043 26.7707 65.2963 26.584 65.7656 26.584C66.715 26.584 67.5256 26.888 68.1976 27.496C68.8696 28.104 69.2056 29.0533 69.2056 30.344C69.2056 31.624 68.971 32.6213 68.5016 33.336C67.8723 34.1787 67.259 34.7333 66.6616 35C66.2563 35.1813 65.835 35.272 65.3976 35.272C64.9603 35.272 64.603 35.24 64.3256 35.176C64.0483 35.1227 63.7496 35 63.4296 34.808C63.1203 34.616 62.8483 34.3653 62.6136 34.056ZM63.3496 30.904C63.3496 32.056 63.5683 32.8827 64.0056 33.384C64.4536 33.8853 65.099 34.136 65.9416 34.136C66.2616 34.136 66.4963 34.1093 66.6456 34.056C67.3816 33.768 67.7496 32.6587 67.7496 30.728C67.7496 29.8213 67.627 29.16 67.3816 28.744C67.147 28.3173 66.7363 28.0133 66.1496 27.832C65.851 27.7573 65.579 27.72 65.3336 27.72C65.0883 27.72 64.907 27.7253 64.7896 27.736C64.683 27.7467 64.539 27.7787 64.3576 27.832C64.1763 27.8853 64.0376 27.976 63.9416 28.104C63.8456 28.2213 63.7443 28.3867 63.6376 28.6C63.4456 28.984 63.3496 29.752 63.3496 30.904ZM72.5433 29.208L72.5273 33.544C72.5273 33.8747 72.6233 34.0933 72.8153 34.2C73.0073 34.296 73.2953 34.3707 73.6793 34.424C74.0739 34.4773 74.2873 34.504 74.3193 34.504V35H69.8393V34.456C70.0953 34.424 70.2659 34.408 70.3513 34.408C70.4366 34.3973 70.5433 34.3653 70.6713 34.312C70.8099 34.248 70.8899 34.1947 70.9113 34.152C70.9326 34.0987 70.9646 33.992 71.0073 33.832C71.0499 33.672 71.0713 33.512 71.0713 33.352V32.088C71.0713 29.944 71.0339 28.6853 70.9593 28.312C70.8739 27.896 70.5646 27.688 70.0313 27.688L69.9993 27.08C70.4259 27.0373 70.8633 26.936 71.3113 26.776C71.7593 26.616 72.0473 26.536 72.1753 26.536C72.3033 26.536 72.3939 26.6 72.4473 26.728C72.5006 26.8453 72.5273 27.064 72.5273 27.384L72.5433 27.992C73.4819 27.0853 74.2233 26.632 74.7673 26.632C75.1619 26.632 75.4339 26.68 75.5833 26.776C75.7326 26.872 75.8073 27.048 75.8073 27.304C75.8073 27.3893 75.7219 27.9653 75.5513 29.032H74.9753C74.9219 28.232 74.6499 27.832 74.1593 27.832C73.8819 27.832 73.5406 27.96 73.1353 28.216C72.7406 28.4613 72.5433 28.792 72.5433 29.208ZM77.1422 31.992L77.1902 27.832H75.7982V27.352L77.1902 27.08V25.608L78.4222 25.224C78.5822 25.224 78.6622 25.304 78.6622 25.464L78.6302 26.44V26.936H80.6622L80.6142 27.832H78.6302L78.5822 31.784C78.5822 32.6053 78.6302 33.1973 78.7262 33.56C78.8329 33.9227 79.0249 34.104 79.3022 34.104C79.5796 34.104 79.9796 33.9493 80.5022 33.64L80.8382 33.96C80.0169 34.8133 79.3449 35.24 78.8222 35.24C78.1289 35.24 77.6756 35.0053 77.4622 34.536C77.2489 34.0667 77.1422 33.2187 77.1422 31.992ZM87.0776 32.632L87.1096 28.84C87.1096 28.072 87.0403 27.6507 86.9016 27.576C86.827 27.5333 86.6936 27.512 86.5016 27.512H85.9896L85.9576 26.984C86.7896 26.9093 87.387 26.8293 87.7496 26.744C88.123 26.648 88.3256 26.6 88.3576 26.6C88.5496 26.6 88.6456 26.68 88.6456 26.84C88.6456 28.184 88.6243 29.4907 88.5816 30.76C88.539 32.0293 88.5176 32.7813 88.5176 33.016C88.5176 33.2507 88.635 33.56 88.8696 33.944C89.115 34.3173 89.2376 34.536 89.2376 34.6C89.2376 34.6533 89.1896 34.696 89.0936 34.728C88.347 34.9733 87.9256 35.096 87.8296 35.096C87.7443 35.096 87.6536 35.0213 87.5576 34.872C87.4723 34.712 87.3923 34.52 87.3176 34.296C87.243 34.072 87.2003 33.9547 87.1896 33.944C86.5496 34.392 85.963 34.7067 85.4296 34.888C84.8963 35.0587 84.4643 35.144 84.1336 35.144C83.8136 35.144 83.4723 34.9893 83.1096 34.68C82.7576 34.3707 82.523 33.9867 82.4056 33.528C82.299 33.1867 82.2456 32.5253 82.2456 31.544V28.968C82.2456 28.7013 82.1976 28.3333 82.1016 27.864C82.0803 27.7893 82.011 27.7253 81.8936 27.672C81.7763 27.6187 81.6856 27.592 81.6216 27.592C81.5576 27.5813 81.419 27.576 81.2056 27.576L81.1736 27.032C81.8563 26.9573 82.395 26.8667 82.7896 26.76C83.1843 26.6533 83.403 26.6 83.4456 26.6C83.6376 26.6 83.7336 26.68 83.7336 26.84L83.6696 31.512C83.6696 32.3013 83.7123 32.824 83.7976 33.08C83.8936 33.336 84.0376 33.5333 84.2296 33.672C84.4323 33.8107 84.6296 33.88 84.8216 33.88C85.0243 33.88 85.3016 33.8427 85.6536 33.768C86.0163 33.6933 86.3096 33.5973 86.5336 33.48C86.7683 33.352 86.9176 33.2453 86.9816 33.16C87.0456 33.064 87.0776 32.888 87.0776 32.632ZM90.0483 27.112C90.4856 27.0693 90.9229 26.968 91.3603 26.808C91.8083 26.648 92.0963 26.568 92.2243 26.568C92.3629 26.568 92.4589 26.632 92.5123 26.76C92.5656 26.8773 92.5923 27.096 92.5923 27.416V27.64C93.8189 26.9467 94.7789 26.6 95.4723 26.6C96.1763 26.6 96.6616 26.792 96.9283 27.176C97.1949 27.5493 97.3283 27.9813 97.3283 28.472V33.816C97.3283 34.0507 97.3763 34.2107 97.4723 34.296C97.5789 34.3813 97.8136 34.4347 98.1763 34.456V35H94.9123V34.456C95.3176 34.424 95.5683 34.36 95.6643 34.264C95.7709 34.168 95.8243 33.9973 95.8243 33.752V28.68C95.8243 28.4133 95.7389 28.2107 95.5683 28.072C95.4083 27.9227 95.2376 27.8373 95.0563 27.816C94.8856 27.784 94.6829 27.768 94.4483 27.768C94.2243 27.768 93.9203 27.832 93.5363 27.96C93.1523 28.0773 92.8536 28.2107 92.6403 28.36C92.6296 28.9893 92.6136 29.6453 92.5923 30.328C92.5496 31.7147 92.5283 32.6747 92.5283 33.208C92.5283 33.7307 92.5816 34.0667 92.6883 34.216C92.7949 34.3547 93.0563 34.4347 93.4723 34.456V35H90.1123V34.456C90.4323 34.4133 90.6563 34.3547 90.7843 34.28C90.9229 34.1947 91.0083 34.072 91.0403 33.912C91.0829 33.6347 91.1043 33.3147 91.1043 32.952C91.1043 32.5787 91.0883 31.7147 91.0563 30.36C91.0243 28.9947 91.0029 28.2907 90.9923 28.248C90.9816 28.1947 90.9656 28.1467 90.9443 28.104C90.9336 28.0507 90.9123 28.008 90.8803 27.976C90.8589 27.944 90.8376 27.9173 90.8163 27.896C90.8056 27.8747 90.7789 27.8533 90.7363 27.832C90.6936 27.8107 90.6616 27.8 90.6403 27.8C90.6189 27.7893 90.5763 27.7787 90.5123 27.768C90.4589 27.7573 90.4216 27.7467 90.4003 27.736C90.3363 27.7253 90.2349 27.72 90.0963 27.72L90.0483 27.112ZM105.016 28.728L104.952 32.952C104.952 33.2187 105.069 33.544 105.304 33.928C105.549 34.3013 105.672 34.52 105.672 34.584C105.672 34.6373 105.624 34.68 105.528 34.712C104.781 34.9573 104.36 35.08 104.264 35.08C104.179 35.08 104.088 35.0053 103.992 34.856C103.907 34.696 103.827 34.504 103.752 34.28C103.677 34.056 103.635 33.9387 103.624 33.928C103.464 34.0347 103.267 34.168 103.032 34.328C102.797 34.488 102.632 34.6 102.536 34.664C102.451 34.7173 102.323 34.7867 102.152 34.872C101.992 34.9573 101.848 35.016 101.72 35.048C101.421 35.1227 101.016 35.16 100.504 35.16C100.003 35.16 99.6292 34.9573 99.3839 34.552C99.1385 34.1467 99.0159 33.704 99.0159 33.224C99.0159 32.744 99.0532 32.36 99.1279 32.072C99.2025 31.784 99.3252 31.544 99.4959 31.352C99.6665 31.16 99.8372 31 100.008 30.872C100.179 30.744 100.419 30.6373 100.728 30.552C101.048 30.456 101.32 30.3867 101.544 30.344C101.779 30.2907 102.104 30.2267 102.52 30.152C102.936 30.0667 103.272 29.9973 103.528 29.944L103.544 28.984C103.544 28.4933 103.368 28.1413 103.016 27.928C102.664 27.7147 102.237 27.608 101.736 27.608C101.245 27.608 100.904 27.736 100.712 27.992C100.52 28.2373 100.312 28.7707 100.088 29.592L99.4319 29.528C99.4319 28.6 99.5919 27.9493 99.9119 27.576C100.296 27.128 100.712 26.8507 101.16 26.744C101.608 26.6373 102.061 26.584 102.52 26.584C102.989 26.584 103.389 26.6373 103.72 26.744C104.051 26.8507 104.296 26.9733 104.456 27.112C104.627 27.24 104.755 27.4213 104.84 27.656C104.936 27.88 104.989 28.0613 105 28.2C105.011 28.3387 105.016 28.5147 105.016 28.728ZM100.456 32.904C100.456 33.6933 100.813 34.088 101.528 34.088C102.157 34.088 102.792 33.8213 103.432 33.288C103.507 33.224 103.544 32.8347 103.544 32.12C103.544 31.4053 103.539 30.888 103.528 30.568C103.336 30.632 103.091 30.712 102.792 30.808C102.504 30.904 102.296 30.9733 102.168 31.016C102.051 31.0587 101.891 31.1173 101.688 31.192C101.485 31.256 101.347 31.3093 101.272 31.352C101.208 31.3947 101.112 31.448 100.984 31.512C100.867 31.576 100.792 31.64 100.76 31.704C100.728 31.7573 100.68 31.8267 100.616 31.912C100.552 31.9867 100.515 32.0773 100.504 32.184C100.472 32.4827 100.456 32.7227 100.456 32.904ZM107.344 31.992L107.392 27.832H106V27.352L107.392 27.08V25.608L108.625 25.224C108.785 25.224 108.865 25.304 108.865 25.464L108.832 26.44V26.936H110.865L110.817 27.832H108.832L108.785 31.784C108.785 32.6053 108.833 33.1973 108.928 33.56C109.035 33.9227 109.227 34.104 109.505 34.104C109.782 34.104 110.182 33.9493 110.705 33.64L111.041 33.96C110.219 34.8133 109.547 35.24 109.025 35.24C108.331 35.24 107.878 35.0053 107.664 34.536C107.451 34.0667 107.344 33.2187 107.344 31.992ZM111.856 28.616C112.027 28.2213 112.437 27.7947 113.088 27.336C113.739 26.8667 114.325 26.632 114.848 26.632C115.381 26.632 115.835 26.6907 116.208 26.808C116.581 26.9253 116.875 27.1013 117.088 27.336C117.301 27.56 117.472 27.784 117.6 28.008C117.739 28.2213 117.829 28.4933 117.872 28.824C117.957 29.3573 118 29.7627 118 30.04V30.504C117.659 30.7173 117.099 30.824 116.32 30.824H113.04C113.04 31.9653 113.125 32.696 113.296 33.016C113.552 33.4853 113.872 33.7787 114.256 33.896C114.501 33.9707 114.789 34.008 115.12 34.008C116.048 34.008 116.896 33.6293 117.664 32.872L118.016 33.24C117.973 33.2827 117.872 33.3893 117.712 33.56C117.552 33.72 117.445 33.8267 117.392 33.88C117.339 33.9333 117.237 34.0347 117.088 34.184C116.939 34.3227 116.821 34.4187 116.736 34.472C116.661 34.5253 116.549 34.6053 116.4 34.712C116.261 34.8187 116.139 34.8933 116.032 34.936C115.936 34.9787 115.813 35.032 115.664 35.096C115.419 35.192 115.131 35.24 114.8 35.24C114.16 35.24 113.611 35.1173 113.152 34.872C112.704 34.616 112.368 34.2747 112.144 33.848C111.717 33.0693 111.504 32.1413 111.504 31.064C111.504 29.9867 111.621 29.1707 111.856 28.616ZM113.072 30.104H113.984C115.403 30.104 116.245 30.008 116.512 29.816C116.512 29.3573 116.437 28.9627 116.288 28.632C116.011 27.992 115.52 27.672 114.816 27.672C114.112 27.672 113.643 27.8533 113.408 28.216C113.184 28.568 113.072 29.1973 113.072 30.104ZM118.733 35V34.456C118.818 34.4453 118.93 34.4293 119.069 34.408C119.207 34.376 119.298 34.36 119.341 34.36C119.383 34.3493 119.447 34.328 119.533 34.296C119.629 34.264 119.687 34.2373 119.709 34.216C119.73 34.1947 119.767 34.152 119.821 34.088C119.874 34.024 119.901 33.96 119.901 33.896C119.911 33.832 119.927 33.7467 119.949 33.64C119.97 33.5227 119.981 33.4 119.981 33.272V29.832C119.981 28.7333 119.965 26.9787 119.933 24.568L119.917 23.8C119.906 23.5333 119.842 23.3627 119.725 23.288C119.607 23.2133 119.373 23.176 119.021 23.176H118.813L118.781 22.648C119.57 22.552 120.157 22.4613 120.541 22.376C120.925 22.28 121.138 22.232 121.181 22.232C121.362 22.232 121.453 22.312 121.453 22.472C121.474 23.3467 121.485 24.44 121.485 25.752C121.485 27.064 121.458 28.4667 121.405 29.96C121.351 31.4427 121.325 32.616 121.325 33.48C121.325 33.8853 121.383 34.136 121.501 34.232C121.629 34.3173 121.965 34.392 122.509 34.456V35H118.733ZM129.28 26.856L130.336 26.792C130.485 26.792 130.56 26.872 130.56 27.032C130.56 27.064 130.549 27.096 130.528 27.128C130.517 27.1493 130.49 27.192 130.448 27.256C130.416 27.32 130.368 27.4 130.304 27.496C130.25 27.5813 130.17 27.7253 130.064 27.928C129.968 28.12 129.856 28.344 129.728 28.6C129.482 29.112 129.114 29.96 128.624 31.144C127.653 33.576 126.885 35.6827 126.32 37.464C126.181 37.8907 126.085 38.1413 126.032 38.216C125.989 38.2907 125.904 38.328 125.776 38.328C125.072 38.328 124.72 38.1733 124.72 37.864C124.72 37.6933 124.906 37.304 125.28 36.696C125.664 36.0987 125.856 35.6187 125.856 35.256C125.856 34.8933 125.546 33.6347 124.928 31.48C124.32 29.3253 123.888 28.0987 123.632 27.8C123.525 27.6613 123.408 27.5867 123.28 27.576C123.162 27.5547 123.05 27.544 122.944 27.544C122.837 27.5333 122.762 27.5227 122.72 27.512L122.688 26.984C123.391 26.888 123.936 26.792 124.32 26.696C124.714 26.5893 124.933 26.536 124.976 26.536C125.157 26.536 125.248 26.616 125.248 26.776C125.248 27.0853 125.664 28.76 126.496 31.8L126.928 33.32C128.058 30.3013 128.624 28.4827 128.624 27.864C128.624 27.576 128.528 27.432 128.336 27.432C128.144 27.432 128.048 27.3253 128.048 27.112C128.048 26.92 128.229 26.824 128.592 26.824L129.28 26.856ZM135.158 23.128C135.916 23.0213 136.46 22.9307 136.79 22.856L136.982 23.032C136.588 27.96 136.3 30.904 136.118 31.864L135.59 31.768L135.51 30.424C135.276 26.264 135.158 23.832 135.158 23.128ZM135.718 35.16C135.569 35.16 135.404 34.9413 135.222 34.504C135.041 34.056 134.95 33.7733 134.95 33.656C134.95 33.528 135.041 33.3253 135.222 33.048C135.414 32.7707 135.601 32.632 135.782 32.632C135.964 32.632 136.172 32.8293 136.406 33.224C136.652 33.6187 136.774 33.896 136.774 34.056C136.774 34.216 136.641 34.44 136.374 34.728C136.118 35.016 135.9 35.16 135.718 35.16ZM142.894 31.992L142.942 27.832H141.55V27.352L142.942 27.08V25.608L144.174 25.224C144.334 25.224 144.414 25.304 144.414 25.464L144.382 26.44V26.936H146.414L146.366 27.832H144.382L144.334 31.784C144.334 32.6053 144.382 33.1973 144.478 33.56C144.584 33.9227 144.776 34.104 145.054 34.104C145.331 34.104 145.731 33.9493 146.254 33.64L146.59 33.96C145.768 34.8133 145.096 35.24 144.574 35.24C143.88 35.24 143.427 35.0053 143.214 34.536C143 34.0667 142.894 33.2187 142.894 31.992ZM148.109 33.784L148.125 26.296C148.125 24.7493 148.072 23.8427 147.965 23.576C147.858 23.2987 147.522 23.16 146.957 23.16L146.925 22.632C147.714 22.5573 148.301 22.4773 148.685 22.392C149.08 22.296 149.293 22.248 149.325 22.248C149.506 22.248 149.597 22.328 149.597 22.488L149.581 23.528L149.565 27.656C150.802 26.9627 151.805 26.616 152.573 26.616C153.352 26.616 153.858 26.872 154.093 27.384C154.328 27.8853 154.445 28.712 154.445 29.864L154.397 33.256C154.397 33.768 154.434 34.088 154.509 34.216C154.594 34.3333 154.829 34.4133 155.213 34.456V35H152.173V34.456C152.557 34.3707 152.786 34.2533 152.861 34.104C152.936 33.9547 152.973 33.5547 152.973 32.904V30.04C152.973 29.08 152.898 28.4667 152.749 28.2C152.61 27.9227 152.274 27.784 151.741 27.784C151.421 27.784 151.032 27.8533 150.573 27.992C150.125 28.1307 149.789 28.2747 149.565 28.424C149.533 29.6613 149.517 31.208 149.517 33.064C149.517 33.6613 149.56 34.04 149.645 34.2C149.741 34.3493 150.002 34.4347 150.429 34.456V35H147.165V34.456C147.517 34.4347 147.762 34.3707 147.901 34.264C148.04 34.1573 148.109 33.9973 148.109 33.784ZM156.276 28.616C156.447 28.2213 156.857 27.7947 157.508 27.336C158.159 26.8667 158.745 26.632 159.268 26.632C159.801 26.632 160.255 26.6907 160.628 26.808C161.001 26.9253 161.295 27.1013 161.508 27.336C161.721 27.56 161.892 27.784 162.02 28.008C162.159 28.2213 162.249 28.4933 162.292 28.824C162.377 29.3573 162.42 29.7627 162.42 30.04V30.504C162.079 30.7173 161.519 30.824 160.74 30.824H157.46C157.46 31.9653 157.545 32.696 157.716 33.016C157.972 33.4853 158.292 33.7787 158.676 33.896C158.921 33.9707 159.209 34.008 159.54 34.008C160.468 34.008 161.316 33.6293 162.084 32.872L162.436 33.24C162.393 33.2827 162.292 33.3893 162.132 33.56C161.972 33.72 161.865 33.8267 161.812 33.88C161.759 33.9333 161.657 34.0347 161.508 34.184C161.359 34.3227 161.241 34.4187 161.156 34.472C161.081 34.5253 160.969 34.6053 160.82 34.712C160.681 34.8187 160.559 34.8933 160.452 34.936C160.356 34.9787 160.233 35.032 160.084 35.096C159.839 35.192 159.551 35.24 159.22 35.24C158.58 35.24 158.031 35.1173 157.572 34.872C157.124 34.616 156.788 34.2747 156.564 33.848C156.137 33.0693 155.924 32.1413 155.924 31.064C155.924 29.9867 156.041 29.1707 156.276 28.616ZM157.492 30.104H158.404C159.823 30.104 160.665 30.008 160.932 29.816C160.932 29.3573 160.857 28.9627 160.708 28.632C160.431 27.992 159.94 27.672 159.236 27.672C158.532 27.672 158.063 27.8533 157.828 28.216C157.604 28.568 157.492 29.1973 157.492 30.104ZM165.841 29.208L165.825 33.544C165.825 33.8747 165.921 34.0933 166.113 34.2C166.305 34.296 166.593 34.3707 166.977 34.424C167.371 34.4773 167.585 34.504 167.617 34.504V35H163.137V34.456C163.393 34.424 163.563 34.408 163.649 34.408C163.734 34.3973 163.841 34.3653 163.969 34.312C164.107 34.248 164.187 34.1947 164.209 34.152C164.23 34.0987 164.262 33.992 164.305 33.832C164.347 33.672 164.369 33.512 164.369 33.352V32.088C164.369 29.944 164.331 28.6853 164.257 28.312C164.171 27.896 163.862 27.688 163.329 27.688L163.297 27.08C163.723 27.0373 164.161 26.936 164.609 26.776C165.057 26.616 165.345 26.536 165.473 26.536C165.601 26.536 165.691 26.6 165.745 26.728C165.798 26.8453 165.825 27.064 165.825 27.384L165.841 27.992C166.779 27.0853 167.521 26.632 168.065 26.632C168.459 26.632 168.731 26.68 168.881 26.776C169.03 26.872 169.105 27.048 169.105 27.304C169.105 27.3893 169.019 27.9653 168.849 29.032H168.273C168.219 28.232 167.947 27.832 167.457 27.832C167.179 27.832 166.838 27.96 166.433 28.216C166.038 28.4613 165.841 28.792 165.841 29.208ZM169.768 28.616C169.938 28.2213 170.349 27.7947 171 27.336C171.65 26.8667 172.237 26.632 172.76 26.632C173.293 26.632 173.746 26.6907 174.12 26.808C174.493 26.9253 174.786 27.1013 175 27.336C175.213 27.56 175.384 27.784 175.512 28.008C175.65 28.2213 175.741 28.4933 175.784 28.824C175.869 29.3573 175.912 29.7627 175.912 30.04V30.504C175.57 30.7173 175.01 30.824 174.232 30.824H170.952C170.952 31.9653 171.037 32.696 171.208 33.016C171.464 33.4853 171.784 33.7787 172.168 33.896C172.413 33.9707 172.701 34.008 173.032 34.008C173.96 34.008 174.808 33.6293 175.576 32.872L175.928 33.24C175.885 33.2827 175.784 33.3893 175.624 33.56C175.464 33.72 175.357 33.8267 175.304 33.88C175.25 33.9333 175.149 34.0347 175 34.184C174.85 34.3227 174.733 34.4187 174.648 34.472C174.573 34.5253 174.461 34.6053 174.312 34.712C174.173 34.8187 174.05 34.8933 173.944 34.936C173.848 34.9787 173.725 35.032 173.576 35.096C173.33 35.192 173.042 35.24 172.712 35.24C172.072 35.24 171.522 35.1173 171.064 34.872C170.616 34.616 170.28 34.2747 170.056 33.848C169.629 33.0693 169.416 32.1413 169.416 31.064C169.416 29.9867 169.533 29.1707 169.768 28.616ZM170.984 30.104H171.896C173.314 30.104 174.157 30.008 174.424 29.816C174.424 29.3573 174.349 28.9627 174.2 28.632C173.922 27.992 173.432 27.672 172.728 27.672C172.024 27.672 171.554 27.8533 171.32 28.216C171.096 28.568 170.984 29.1973 170.984 30.104ZM182.216 25.32C182.046 25.32 181.854 25.192 181.64 24.936C181.427 24.6693 181.32 24.4773 181.32 24.36C181.32 24.232 181.406 24.008 181.576 23.688C181.758 23.368 181.944 23.208 182.136 23.208C182.328 23.208 182.542 23.3093 182.776 23.512C183.011 23.704 183.128 23.928 183.128 24.184C183.128 24.44 183.016 24.696 182.792 24.952C182.579 25.1973 182.387 25.32 182.216 25.32ZM180.376 35V34.456C180.92 34.4133 181.262 34.344 181.4 34.248C181.539 34.1413 181.608 33.928 181.608 33.608V30.28C181.608 29.352 181.582 28.7067 181.528 28.344C181.486 27.9813 181.411 27.752 181.304 27.656C181.198 27.5493 180.995 27.496 180.696 27.496H180.456L180.424 26.968C181.214 26.8933 181.8 26.8133 182.184 26.728C182.579 26.632 182.792 26.584 182.824 26.584C183.006 26.584 183.096 26.6693 183.096 26.84C183.096 26.968 183.091 27.32 183.08 27.896C183.038 30.1787 183.016 32.1467 183.016 33.8C183.016 34.0133 183.102 34.1733 183.272 34.28C183.443 34.376 183.715 34.4347 184.088 34.456V35H180.376ZM186.348 31.288C185.964 31.1387 185.633 30.8987 185.356 30.568C185.089 30.2373 184.956 29.8107 184.956 29.288C184.956 28.7653 185.047 28.3653 185.228 28.088C185.612 27.4693 185.975 27.0693 186.316 26.888C186.657 26.696 187.095 26.6 187.628 26.6C188.161 26.6 188.641 26.6907 189.068 26.872C189.185 26.9147 189.271 26.9573 189.324 27C189.516 27.1173 189.612 27.336 189.612 27.656C189.612 27.688 189.607 27.768 189.596 27.896C189.575 28.1733 189.564 28.616 189.564 29.224H188.972C188.961 29.0853 188.913 28.8827 188.828 28.616C188.753 28.3493 188.668 28.1467 188.572 28.008C188.359 27.6987 187.959 27.544 187.372 27.544C186.807 27.544 186.433 27.6827 186.252 27.96C186.103 28.184 186.028 28.4347 186.028 28.712C186.028 28.9787 186.161 29.2187 186.428 29.432C186.695 29.6347 187.02 29.8 187.404 29.928C187.788 30.056 188.172 30.2 188.556 30.36C188.951 30.5093 189.281 30.7653 189.548 31.128C189.815 31.48 189.948 31.9333 189.948 32.488C189.948 33.0427 189.868 33.4533 189.708 33.72C189.42 34.1787 189.079 34.5627 188.684 34.872C188.524 34.9893 188.273 35.0853 187.932 35.16C187.591 35.2347 187.335 35.272 187.164 35.272C186.023 35.272 185.34 35.08 185.116 34.696C185.031 34.5573 184.988 34.376 184.988 34.152C184.988 33.288 185.009 32.76 185.052 32.568C185.105 32.3653 185.217 32.264 185.388 32.264C185.569 32.264 185.681 32.3387 185.724 32.488C185.767 32.6373 185.804 32.8453 185.836 33.112C185.953 33.8693 186.476 34.248 187.404 34.248C187.873 34.248 188.241 34.1413 188.508 33.928C188.775 33.7147 188.908 33.4267 188.908 33.064C188.908 32.6907 188.769 32.3973 188.492 32.184C188.225 31.9707 187.895 31.8053 187.5 31.688C187.116 31.56 186.732 31.4267 186.348 31.288ZM25.3539 50.568L25.3379 49.08V48.328C25.2953 48.0613 25.0659 47.9067 24.6499 47.864L23.8499 47.784V47.192H26.8739C27.0019 47.5653 29.2899 50.6533 33.7379 56.456C33.6953 55.8587 33.6739 54.7973 33.6739 53.272C33.6739 51.736 33.6526 50.264 33.6099 48.856C33.5993 48.4827 33.5193 48.232 33.3699 48.104C33.2206 47.9653 32.8206 47.864 32.1699 47.8V47.192H36.0419V47.768C35.3273 47.832 34.8953 47.976 34.7459 48.2L34.6499 48.696C34.5753 51.288 34.5379 53.848 34.5379 56.376L34.5699 59H33.6259C33.1993 58.36 32.6606 57.6293 32.0099 56.808C31.3593 55.976 30.8313 55.304 30.4259 54.792C29.6153 53.7467 28.2179 51.9653 26.2339 49.448V54.36C26.2873 56.3973 26.3139 57.5173 26.3139 57.72C26.3139 57.9227 26.4313 58.072 26.6659 58.168C26.9113 58.264 27.2526 58.3333 27.6899 58.376V59H23.9139V58.424C24.7459 58.3493 25.1886 58.1147 25.2419 57.72C25.3166 57.1867 25.3539 55.2133 25.3539 51.8V50.568ZM37.1354 58.056C36.9114 57.7467 36.7248 57.32 36.5754 56.776C36.4261 56.2213 36.3514 55.528 36.3514 54.696C36.3514 53.8533 36.5701 53.0747 37.0074 52.36C37.2954 51.912 37.7968 51.5067 38.5114 51.144C39.2261 50.7707 39.8181 50.584 40.2874 50.584C41.2368 50.584 42.0474 50.888 42.7194 51.496C43.3914 52.104 43.7274 53.0533 43.7274 54.344C43.7274 55.624 43.4928 56.6213 43.0234 57.336C42.3941 58.1787 41.7808 58.7333 41.1834 59C40.7781 59.1813 40.3568 59.272 39.9194 59.272C39.4821 59.272 39.1248 59.24 38.8474 59.176C38.5701 59.1227 38.2714 59 37.9514 58.808C37.6421 58.616 37.3701 58.3653 37.1354 58.056ZM37.8714 54.904C37.8714 56.056 38.0901 56.8827 38.5274 57.384C38.9754 57.8853 39.6208 58.136 40.4634 58.136C40.7834 58.136 41.0181 58.1093 41.1674 58.056C41.9034 57.768 42.2714 56.6587 42.2714 54.728C42.2714 53.8213 42.1488 53.16 41.9034 52.744C41.6688 52.3173 41.2581 52.0133 40.6714 51.832C40.3728 51.7573 40.1008 51.72 39.8554 51.72C39.6101 51.72 39.4288 51.7253 39.3114 51.736C39.2048 51.7467 39.0608 51.7787 38.8794 51.832C38.6981 51.8853 38.5594 51.976 38.4634 52.104C38.3674 52.2213 38.2661 52.3867 38.1594 52.6C37.9674 52.984 37.8714 53.752 37.8714 54.904ZM51.1168 53.08L51.0848 57.672C51.0848 58.0027 51.3088 58.2213 51.7568 58.328C51.9381 58.36 52.1941 58.3867 52.5248 58.408V59H48.0928V58.408C48.4128 58.3867 48.6581 58.36 48.8288 58.328C49.0101 58.296 49.1701 58.2267 49.3088 58.12C49.4581 58.0133 49.5328 57.864 49.5328 57.672C49.5328 53.9813 49.4955 50.8987 49.4208 48.424C49.4101 48.1893 49.3248 48.0347 49.1648 47.96C49.0155 47.8747 48.7328 47.8213 48.3168 47.8L48.0928 47.784V47.192H52.5248V47.784L52.3008 47.8C51.8848 47.8213 51.5968 47.8747 51.4368 47.96C51.2875 48.0347 51.2075 48.1893 51.1968 48.424C51.1648 50.312 51.1435 51.6347 51.1328 52.392H57.7088C57.6981 51.1013 57.6715 49.7787 57.6288 48.424C57.6181 48.1893 57.5328 48.0347 57.3728 47.96C57.2235 47.8747 56.9408 47.8213 56.5248 47.8L56.3008 47.784V47.192H60.7328V47.784L60.5088 47.8C60.0928 47.8213 59.8048 47.8747 59.6448 47.96C59.4955 48.0347 59.4155 48.1893 59.4048 48.424C59.3301 50.5573 59.2928 53.64 59.2928 57.672C59.2928 58.0027 59.5221 58.2213 59.9808 58.328C60.1515 58.36 60.4021 58.3867 60.7328 58.408V59H56.3008V58.408C56.6208 58.3867 56.8661 58.36 57.0368 58.328C57.2181 58.296 57.3781 58.2267 57.5168 58.12C57.6661 58.0133 57.7408 57.864 57.7408 57.672C57.7408 56.2 57.7301 54.6693 57.7088 53.08H51.1168ZM67.0629 59.096L63.7189 58.936C62.8123 58.936 62.0709 58.9573 61.4949 59V58.408C61.8149 58.3867 62.0603 58.36 62.2309 58.328C62.4123 58.296 62.5723 58.2267 62.7109 58.12C62.8603 58.0133 62.9349 57.864 62.9349 57.672C62.9349 53.9813 62.8976 50.8987 62.8229 48.424C62.8123 48.1893 62.7269 48.0347 62.5669 47.96C62.4176 47.8747 62.1349 47.8213 61.7189 47.8L61.4949 47.784V47.192C62.0709 47.2347 62.8336 47.256 63.7829 47.256C64.7429 47.256 65.5376 47.2293 66.1669 47.176C66.7963 47.1227 67.2229 47.096 67.4469 47.096H67.7829C69.5216 47.096 70.7909 47.5227 71.5909 48.376C72.3909 49.2293 72.7909 50.5893 72.7909 52.456C72.7909 53.416 72.6736 54.2853 72.4389 55.064C72.2149 55.8427 71.9163 56.4773 71.5429 56.968C71.1803 57.4587 70.7589 57.8693 70.2789 58.2C69.3936 58.7973 68.4336 59.096 67.3989 59.096H67.0629ZM64.4869 56.76C64.4869 57.2933 64.6949 57.6507 65.1109 57.832C65.5376 58.0133 66.3856 58.104 67.6549 58.104C68.4336 58.104 69.0096 57.9653 69.3829 57.688C69.7563 57.4 70.1403 56.8987 70.5349 56.184C70.9403 55.4693 71.1429 54.3973 71.1429 52.968C71.1429 51.2187 70.7963 49.9387 70.1029 49.128C69.4203 48.3067 68.3376 47.896 66.8549 47.896C65.8309 47.896 65.1429 47.9547 64.7909 48.072L64.6149 48.248C64.5296 50.5093 64.4869 53.3467 64.4869 56.76ZM73.3088 47.784V47.192H76.9568L77.1008 47.624L80.6848 56.52C81.9861 53.6933 83.1968 50.728 84.3168 47.624L84.4608 47.192H88.1088V47.784C87.2128 47.816 86.6741 47.912 86.4928 48.072C86.4181 48.1467 86.3808 48.2213 86.3808 48.296C86.3808 48.3707 86.4821 51.32 86.6848 57.144L86.7008 57.592C86.7328 57.9227 86.8288 58.136 86.9888 58.232C87.1595 58.3173 87.4955 58.376 87.9968 58.408V59H83.5648V58.408C83.8848 58.3867 84.1301 58.36 84.3008 58.328C84.4821 58.296 84.6421 58.2267 84.7808 58.12C84.9301 58.0133 85.0048 57.864 85.0048 57.672C84.9728 55.6133 84.8555 52.872 84.6528 49.448C83.1701 52.7013 81.8315 55.8853 80.6368 59H80.0128L75.9168 49.384C75.7568 52.136 75.6768 54.8987 75.6768 57.672C75.6768 58.056 76.1515 58.2907 77.1008 58.376V59H73.3248V58.424C73.8048 58.3707 74.1355 58.232 74.3168 58.008C74.4981 57.7733 74.6101 57.4 74.6528 56.888C74.8661 53.6027 74.9888 51.0533 75.0208 49.24L75.0368 48.344C75.0368 48.1413 74.8928 48.008 74.6048 47.944C74.3275 47.8693 73.8955 47.816 73.3088 47.784ZM88.8148 59V58.408C89.1348 58.3867 89.3801 58.36 89.5508 58.328C89.7321 58.296 89.8921 58.2267 90.0308 58.12C90.1801 58.0133 90.2548 57.864 90.2548 57.672C90.2548 53.9813 90.2175 50.8987 90.1428 48.424C90.1321 48.1893 90.0468 48.0347 89.8868 47.96C89.7375 47.8747 89.4548 47.8213 89.0388 47.8L88.8148 47.784V47.192H93.2468V47.784L93.0228 47.8C92.6068 47.8213 92.3188 47.8747 92.1588 47.96C92.0095 48.0347 91.9295 48.1893 91.9188 48.424C91.8441 50.5573 91.8068 53.64 91.8068 57.672C91.8068 58.0027 92.0308 58.2213 92.4788 58.328C92.6601 58.36 92.9161 58.3867 93.2468 58.408V59H88.8148ZM103.794 50.552L103.266 48.808C103.181 48.5947 103.095 48.456 103.01 48.392C102.701 48.1147 102.194 47.976 101.49 47.976C100.797 47.976 100.274 48.0987 99.9219 48.344C99.5699 48.5893 99.3939 49.0267 99.3939 49.656C99.3939 50.3387 99.6766 50.8613 100.242 51.224C100.359 51.3093 100.503 51.4 100.674 51.496L103.106 52.76C104.386 53.4213 105.026 54.4133 105.026 55.736C105.026 56.3013 104.957 56.7493 104.818 57.08C104.679 57.4107 104.402 57.816 103.986 58.296C103.41 58.9253 102.498 59.24 101.25 59.24C100.258 59.24 99.2179 59 98.1299 58.52C98.2046 57.496 98.2419 56.4187 98.2419 55.288H98.8339L99.0579 56.152C99.2073 56.728 99.3193 57.1013 99.3939 57.272C99.4793 57.432 99.6233 57.592 99.8259 57.752C100.37 57.9867 100.967 58.104 101.618 58.104C102.269 58.104 102.749 57.9813 103.058 57.736C103.367 57.48 103.522 57.0213 103.522 56.36C103.522 55.4427 103.031 54.7227 102.05 54.2L100.754 53.56C100.125 53.2293 99.7139 53.0053 99.5219 52.888C99.3299 52.7707 99.1699 52.648 99.0419 52.52L98.9139 52.376C98.3806 51.8 98.1139 51.144 98.1139 50.408C98.1139 49.6613 98.2313 49.0693 98.4659 48.632C98.7113 48.184 99.1913 47.7627 99.9059 47.368C100.418 47.0907 101.085 46.952 101.906 46.952C102.738 46.952 103.538 47.1547 104.306 47.56L104.498 47.736C104.498 48.2693 104.45 49.208 104.354 50.552H103.794ZM106.587 58.056C106.363 57.7467 106.176 57.32 106.027 56.776C105.877 56.2213 105.803 55.528 105.803 54.696C105.803 53.8533 106.021 53.0747 106.459 52.36C106.747 51.912 107.248 51.5067 107.963 51.144C108.677 50.7707 109.269 50.584 109.739 50.584C110.688 50.584 111.499 50.888 112.171 51.496C112.843 52.104 113.179 53.0533 113.179 54.344C113.179 55.624 112.944 56.6213 112.475 57.336C111.845 58.1787 111.232 58.7333 110.635 59C110.229 59.1813 109.808 59.272 109.371 59.272C108.933 59.272 108.576 59.24 108.299 59.176C108.021 59.1227 107.723 59 107.403 58.808C107.093 58.616 106.821 58.3653 106.587 58.056ZM107.323 54.904C107.323 56.056 107.541 56.8827 107.979 57.384C108.427 57.8853 109.072 58.136 109.915 58.136C110.235 58.136 110.469 58.1093 110.619 58.056C111.355 57.768 111.723 56.6587 111.723 54.728C111.723 53.8213 111.6 53.16 111.355 52.744C111.12 52.3173 110.709 52.0133 110.123 51.832C109.824 51.7573 109.552 51.72 109.307 51.72C109.061 51.72 108.88 51.7253 108.763 51.736C108.656 51.7467 108.512 51.7787 108.331 51.832C108.149 51.8853 108.011 51.976 107.915 52.104C107.819 52.2213 107.717 52.3867 107.611 52.6C107.419 52.984 107.323 53.752 107.323 54.904ZM119.668 56.632L119.7 52.84C119.7 52.072 119.631 51.6507 119.492 51.576C119.418 51.5333 119.284 51.512 119.092 51.512H118.58L118.548 50.984C119.38 50.9093 119.978 50.8293 120.34 50.744C120.714 50.648 120.916 50.6 120.948 50.6C121.14 50.6 121.236 50.68 121.236 50.84C121.236 52.184 121.215 53.4907 121.172 54.76C121.13 56.0293 121.108 56.7813 121.108 57.016C121.108 57.2507 121.226 57.56 121.46 57.944C121.706 58.3173 121.828 58.536 121.828 58.6C121.828 58.6533 121.78 58.696 121.684 58.728C120.938 58.9733 120.516 59.096 120.42 59.096C120.335 59.096 120.244 59.0213 120.148 58.872C120.063 58.712 119.983 58.52 119.908 58.296C119.834 58.072 119.791 57.9547 119.78 57.944C119.14 58.392 118.554 58.7067 118.02 58.888C117.487 59.0587 117.055 59.144 116.724 59.144C116.404 59.144 116.063 58.9893 115.7 58.68C115.348 58.3707 115.114 57.9867 114.996 57.528C114.89 57.1867 114.836 56.5253 114.836 55.544V52.968C114.836 52.7013 114.788 52.3333 114.692 51.864C114.671 51.7893 114.602 51.7253 114.484 51.672C114.367 51.6187 114.276 51.592 114.212 51.592C114.148 51.5813 114.01 51.576 113.796 51.576L113.764 51.032C114.447 50.9573 114.986 50.8667 115.38 50.76C115.775 50.6533 115.994 50.6 116.036 50.6C116.228 50.6 116.324 50.68 116.324 50.84L116.26 55.512C116.26 56.3013 116.303 56.824 116.388 57.08C116.484 57.336 116.628 57.5333 116.82 57.672C117.023 57.8107 117.22 57.88 117.412 57.88C117.615 57.88 117.892 57.8427 118.244 57.768C118.607 57.6933 118.9 57.5973 119.124 57.48C119.359 57.352 119.508 57.2453 119.572 57.16C119.636 57.064 119.668 56.888 119.668 56.632ZM125.231 53.208L125.215 57.544C125.215 57.8747 125.311 58.0933 125.503 58.2C125.695 58.296 125.983 58.3707 126.367 58.424C126.762 58.4773 126.975 58.504 127.007 58.504V59H122.527V58.456C122.783 58.424 122.954 58.408 123.039 58.408C123.124 58.3973 123.231 58.3653 123.359 58.312C123.498 58.248 123.578 58.1947 123.599 58.152C123.62 58.0987 123.652 57.992 123.695 57.832C123.738 57.672 123.759 57.512 123.759 57.352V56.088C123.759 53.944 123.722 52.6853 123.647 52.312C123.562 51.896 123.252 51.688 122.719 51.688L122.687 51.08C123.114 51.0373 123.551 50.936 123.999 50.776C124.447 50.616 124.735 50.536 124.863 50.536C124.991 50.536 125.082 50.6 125.135 50.728C125.188 50.8453 125.215 51.064 125.215 51.384L125.231 51.992C126.17 51.0853 126.911 50.632 127.455 50.632C127.85 50.632 128.122 50.68 128.271 50.776C128.42 50.872 128.495 51.048 128.495 51.304C128.495 51.3893 128.41 51.9653 128.239 53.032H127.663C127.61 52.232 127.338 51.832 126.847 51.832C126.57 51.832 126.228 51.96 125.823 52.216C125.428 52.4613 125.231 52.792 125.231 53.208ZM129.03 57.08C128.881 56.44 128.806 55.752 128.806 55.016C128.806 54.2693 128.875 53.5547 129.014 52.872C129.089 52.552 129.275 52.2693 129.574 52.024C130.054 51.576 130.486 51.2453 130.87 51.032C131.265 50.808 131.553 50.68 131.734 50.648C131.926 50.616 132.203 50.6 132.566 50.6C132.929 50.6 133.334 50.6427 133.782 50.728C134.23 50.8133 134.523 50.8827 134.662 50.936C134.63 51.256 134.614 52.056 134.614 53.336H134.134C134.027 52.8667 133.942 52.5307 133.878 52.328C133.825 52.1253 133.595 51.9707 133.19 51.864C132.785 51.7573 132.299 51.704 131.734 51.704C131.169 51.704 130.774 51.9067 130.55 52.312C130.337 52.7173 130.23 53.496 130.23 54.648C130.23 55.6827 130.358 56.472 130.614 57.016C130.913 57.6667 131.51 57.992 132.406 57.992C132.726 57.992 133.067 57.9013 133.43 57.72C133.793 57.528 134.075 57.336 134.278 57.144L134.598 56.856L134.934 57.176C134.518 57.688 134.15 58.0827 133.83 58.36C133.521 58.6373 133.286 58.8187 133.126 58.904C132.219 59.3733 131.227 59.32 130.15 58.744C129.713 58.3493 129.339 57.7947 129.03 57.08ZM136.045 52.616C136.215 52.2213 136.626 51.7947 137.277 51.336C137.927 50.8667 138.514 50.632 139.037 50.632C139.57 50.632 140.023 50.6907 140.397 50.808C140.77 50.9253 141.063 51.1013 141.277 51.336C141.49 51.56 141.661 51.784 141.789 52.008C141.927 52.2213 142.018 52.4933 142.061 52.824C142.146 53.3573 142.189 53.7627 142.189 54.04V54.504C141.847 54.7173 141.287 54.824 140.509 54.824H137.229C137.229 55.9653 137.314 56.696 137.485 57.016C137.741 57.4853 138.061 57.7787 138.445 57.896C138.69 57.9707 138.978 58.008 139.309 58.008C140.237 58.008 141.085 57.6293 141.853 56.872L142.205 57.24C142.162 57.2827 142.061 57.3893 141.901 57.56C141.741 57.72 141.634 57.8267 141.581 57.88C141.527 57.9333 141.426 58.0347 141.277 58.184C141.127 58.3227 141.01 58.4187 140.925 58.472C140.85 58.5253 140.738 58.6053 140.589 58.712C140.45 58.8187 140.327 58.8933 140.221 58.936C140.125 58.9787 140.002 59.032 139.853 59.096C139.607 59.192 139.319 59.24 138.989 59.24C138.349 59.24 137.799 59.1173 137.341 58.872C136.893 58.616 136.557 58.2747 136.333 57.848C135.906 57.0693 135.693 56.1413 135.693 55.064C135.693 53.9867 135.81 53.1707 136.045 52.616ZM137.261 54.104H138.173C139.591 54.104 140.434 54.008 140.701 53.816C140.701 53.3573 140.626 52.9627 140.477 52.632C140.199 51.992 139.709 51.672 139.005 51.672C138.301 51.672 137.831 51.8533 137.597 52.216C137.373 52.568 137.261 53.1973 137.261 54.104ZM148.093 56.488L148.125 52.264C148.125 50.792 148.109 49.512 148.077 48.424C148.066 48.1893 147.981 48.0347 147.821 47.96C147.672 47.8747 147.394 47.8213 146.989 47.8L146.749 47.784V47.192C147.346 47.2347 148.077 47.256 148.941 47.256C149.805 47.256 150.482 47.24 150.973 47.208L154.781 47.192L154.973 47.368C154.952 47.4533 154.877 47.9387 154.749 48.824C154.621 49.7093 154.552 50.2107 154.541 50.328H153.997C153.794 49.24 153.666 48.632 153.613 48.504C153.57 48.3653 153.496 48.2587 153.389 48.184C153.005 48.088 152.418 48.04 151.629 48.04C150.84 48.04 150.349 48.0773 150.157 48.152C149.965 48.216 149.864 48.36 149.853 48.584C149.81 50.9307 149.789 52.2 149.789 52.392C151.304 52.392 152.621 52.3653 153.741 52.312L153.581 53.496H153.293C152.93 53.24 152.061 53.1013 150.685 53.08C150.12 53.08 149.821 53.08 149.789 53.08C149.757 55.448 149.741 56.9787 149.741 57.672C149.741 58.0027 149.97 58.2213 150.429 58.328C150.6 58.36 150.85 58.3867 151.181 58.408L151.789 58.456V59H146.637V58.408C146.957 58.3867 147.202 58.36 147.373 58.328C147.554 58.296 147.714 58.2267 147.853 58.12C148.002 58.0133 148.077 57.864 148.077 57.672L148.093 56.488ZM155.808 58.056C155.584 57.7467 155.397 57.32 155.248 56.776C155.099 56.2213 155.024 55.528 155.024 54.696C155.024 53.8533 155.243 53.0747 155.68 52.36C155.968 51.912 156.469 51.5067 157.184 51.144C157.899 50.7707 158.491 50.584 158.96 50.584C159.909 50.584 160.72 50.888 161.392 51.496C162.064 52.104 162.4 53.0533 162.4 54.344C162.4 55.624 162.165 56.6213 161.696 57.336C161.067 58.1787 160.453 58.7333 159.856 59C159.451 59.1813 159.029 59.272 158.592 59.272C158.155 59.272 157.797 59.24 157.52 59.176C157.243 59.1227 156.944 59 156.624 58.808C156.315 58.616 156.043 58.3653 155.808 58.056ZM156.544 54.904C156.544 56.056 156.763 56.8827 157.2 57.384C157.648 57.8853 158.293 58.136 159.136 58.136C159.456 58.136 159.691 58.1093 159.84 58.056C160.576 57.768 160.944 56.6587 160.944 54.728C160.944 53.8213 160.821 53.16 160.576 52.744C160.341 52.3173 159.931 52.0133 159.344 51.832C159.045 51.7573 158.773 51.72 158.528 51.72C158.283 51.72 158.101 51.7253 157.984 51.736C157.877 51.7467 157.733 51.7787 157.552 51.832C157.371 51.8853 157.232 51.976 157.136 52.104C157.04 52.2213 156.939 52.3867 156.832 52.6C156.64 52.984 156.544 53.752 156.544 54.904ZM168.89 56.632L168.922 52.84C168.922 52.072 168.852 51.6507 168.714 51.576C168.639 51.5333 168.506 51.512 168.314 51.512H167.802L167.77 50.984C168.602 50.9093 169.199 50.8293 169.562 50.744C169.935 50.648 170.138 50.6 170.17 50.6C170.362 50.6 170.458 50.68 170.458 50.84C170.458 52.184 170.436 53.4907 170.394 54.76C170.351 56.0293 170.33 56.7813 170.33 57.016C170.33 57.2507 170.447 57.56 170.682 57.944C170.927 58.3173 171.05 58.536 171.05 58.6C171.05 58.6533 171.002 58.696 170.906 58.728C170.159 58.9733 169.738 59.096 169.642 59.096C169.556 59.096 169.466 59.0213 169.37 58.872C169.284 58.712 169.204 58.52 169.13 58.296C169.055 58.072 169.012 57.9547 169.002 57.944C168.362 58.392 167.775 58.7067 167.242 58.888C166.708 59.0587 166.276 59.144 165.946 59.144C165.626 59.144 165.284 58.9893 164.922 58.68C164.57 58.3707 164.335 57.9867 164.218 57.528C164.111 57.1867 164.058 56.5253 164.058 55.544V52.968C164.058 52.7013 164.01 52.3333 163.914 51.864C163.892 51.7893 163.823 51.7253 163.706 51.672C163.588 51.6187 163.498 51.592 163.434 51.592C163.37 51.5813 163.231 51.576 163.018 51.576L162.986 51.032C163.668 50.9573 164.207 50.8667 164.602 50.76C164.996 50.6533 165.215 50.6 165.258 50.6C165.45 50.6 165.546 50.68 165.546 50.84L165.482 55.512C165.482 56.3013 165.524 56.824 165.61 57.08C165.706 57.336 165.85 57.5333 166.042 57.672C166.244 57.8107 166.442 57.88 166.634 57.88C166.836 57.88 167.114 57.8427 167.466 57.768C167.828 57.6933 168.122 57.5973 168.346 57.48C168.58 57.352 168.73 57.2453 168.794 57.16C168.858 57.064 168.89 56.888 168.89 56.632ZM171.86 51.112C172.298 51.0693 172.735 50.968 173.172 50.808C173.62 50.648 173.908 50.568 174.036 50.568C174.175 50.568 174.271 50.632 174.324 50.76C174.378 50.8773 174.404 51.096 174.404 51.416V51.64C175.631 50.9467 176.591 50.6 177.284 50.6C177.988 50.6 178.474 50.792 178.74 51.176C179.007 51.5493 179.14 51.9813 179.14 52.472V57.816C179.14 58.0507 179.188 58.2107 179.284 58.296C179.391 58.3813 179.626 58.4347 179.988 58.456V59H176.724V58.456C177.13 58.424 177.38 58.36 177.476 58.264C177.583 58.168 177.636 57.9973 177.636 57.752V52.68C177.636 52.4133 177.551 52.2107 177.38 52.072C177.22 51.9227 177.05 51.8373 176.868 51.816C176.698 51.784 176.495 51.768 176.26 51.768C176.036 51.768 175.732 51.832 175.348 51.96C174.964 52.0773 174.666 52.2107 174.452 52.36C174.442 52.9893 174.426 53.6453 174.404 54.328C174.362 55.7147 174.34 56.6747 174.34 57.208C174.34 57.7307 174.394 58.0667 174.5 58.216C174.607 58.3547 174.868 58.4347 175.284 58.456V59H171.924V58.456C172.244 58.4133 172.468 58.3547 172.596 58.28C172.735 58.1947 172.82 58.072 172.852 57.912C172.895 57.6347 172.916 57.3147 172.916 56.952C172.916 56.5787 172.9 55.7147 172.868 54.36C172.836 52.9947 172.815 52.2907 172.804 52.248C172.794 52.1947 172.778 52.1467 172.756 52.104C172.746 52.0507 172.724 52.008 172.692 51.976C172.671 51.944 172.65 51.9173 172.628 51.896C172.618 51.8747 172.591 51.8533 172.548 51.832C172.506 51.8107 172.474 51.8 172.452 51.8C172.431 51.7893 172.388 51.7787 172.324 51.768C172.271 51.7573 172.234 51.7467 172.212 51.736C172.148 51.7253 172.047 51.72 171.908 51.72L171.86 51.112ZM185.9 50.776L185.868 48.376C185.868 48.0347 185.862 47.8 185.852 47.672C185.852 47.5333 185.798 47.416 185.692 47.32C185.596 47.224 185.494 47.176 185.388 47.176C185.292 47.1653 185.078 47.1547 184.748 47.144L184.716 46.616C185.526 46.5413 186.124 46.4613 186.508 46.376C186.892 46.28 187.1 46.232 187.132 46.232C187.313 46.232 187.404 46.3173 187.404 46.488C187.404 48.7813 187.382 50.984 187.34 53.096C187.308 55.1973 187.292 56.4347 187.292 56.808C187.292 57.1707 187.425 57.5547 187.692 57.96C187.969 58.3653 188.108 58.5787 188.108 58.6C188.108 58.6213 188.06 58.6533 187.964 58.696C187.878 58.728 187.766 58.7653 187.628 58.808C187.489 58.8507 187.308 58.92 187.084 59.016C186.87 59.112 186.721 59.16 186.636 59.16C186.55 59.16 186.465 59.0747 186.38 58.904C186.294 58.7227 186.209 58.5253 186.124 58.312C186.049 58.0987 185.985 57.9653 185.932 57.912C185.132 58.7973 184.422 59.24 183.804 59.24C183.27 59.24 182.652 58.9467 181.948 58.36C181.585 58.072 181.281 57.6453 181.036 57.08C180.79 56.5147 180.668 55.9013 180.668 55.24C180.668 54.5787 180.7 54.0293 180.764 53.592C180.828 53.1547 180.897 52.8187 180.972 52.584C181.046 52.3387 181.158 52.12 181.308 51.928C181.468 51.736 181.585 51.608 181.66 51.544C181.745 51.48 181.878 51.3947 182.06 51.288L182.604 50.968C183.062 50.6907 183.564 50.552 184.108 50.552C184.662 50.552 185.26 50.6267 185.9 50.776ZM182.076 54.344C182.076 55.5707 182.284 56.4667 182.7 57.032C183.126 57.5867 183.644 57.864 184.252 57.864C184.86 57.864 185.414 57.624 185.916 57.144C185.916 55.2773 185.905 53.9547 185.884 53.176C185.873 52.3867 185.868 51.9707 185.868 51.928C185.366 51.6293 184.737 51.48 183.98 51.48C183.66 51.48 183.398 51.512 183.196 51.576C183.004 51.6293 182.812 51.7573 182.62 51.96C182.257 52.3227 182.076 53.1173 182.076 54.344ZM193.621 55.992L193.669 51.832H192.277V51.352L193.669 51.08V49.608L194.901 49.224C195.061 49.224 195.141 49.304 195.141 49.464L195.109 50.44V50.936H197.141L197.093 51.832H195.109L195.061 55.784C195.061 56.6053 195.109 57.1973 195.205 57.56C195.312 57.9227 195.504 58.104 195.781 58.104C196.058 58.104 196.458 57.9493 196.981 57.64L197.317 57.96C196.496 58.8133 195.824 59.24 195.301 59.24C194.608 59.24 194.154 59.0053 193.941 58.536C193.728 58.0667 193.621 57.2187 193.621 55.992ZM198.564 58.056C198.34 57.7467 198.154 57.32 198.004 56.776C197.855 56.2213 197.78 55.528 197.78 54.696C197.78 53.8533 197.999 53.0747 198.436 52.36C198.724 51.912 199.226 51.5067 199.94 51.144C200.655 50.7707 201.247 50.584 201.716 50.584C202.666 50.584 203.476 50.888 204.148 51.496C204.82 52.104 205.156 53.0533 205.156 54.344C205.156 55.624 204.922 56.6213 204.452 57.336C203.823 58.1787 203.21 58.7333 202.612 59C202.207 59.1813 201.786 59.272 201.348 59.272C200.911 59.272 200.554 59.24 200.276 59.176C199.999 59.1227 199.7 59 199.38 58.808C199.071 58.616 198.799 58.3653 198.564 58.056ZM199.3 54.904C199.3 56.056 199.519 56.8827 199.956 57.384C200.404 57.8853 201.05 58.136 201.892 58.136C202.212 58.136 202.447 58.1093 202.596 58.056C203.332 57.768 203.7 56.6587 203.7 54.728C203.7 53.8213 203.578 53.16 203.332 52.744C203.098 52.3173 202.687 52.0133 202.1 51.832C201.802 51.7573 201.53 51.72 201.284 51.72C201.039 51.72 200.858 51.7253 200.74 51.736C200.634 51.7467 200.49 51.7787 200.308 51.832C200.127 51.8853 199.988 51.976 199.892 52.104C199.796 52.2213 199.695 52.3867 199.588 52.6C199.396 52.984 199.3 53.752 199.3 54.904ZM47.2918 82.088C47.2491 83.4107 47.2278 84.264 47.2278 84.648C47.2385 85.032 47.2971 85.2827 47.4038 85.4C47.5105 85.528 47.7718 85.6293 48.1878 85.704V86.248H44.9238V85.736C45.2651 85.6933 45.5051 85.6187 45.6438 85.512C45.7825 85.4053 45.8518 85.2507 45.8518 85.048C45.8411 84.0453 45.8358 81.1493 45.8358 76.36C45.8358 75.976 45.7771 75.736 45.6598 75.64C45.5531 75.544 45.2598 75.496 44.7798 75.496L44.7478 74.968C45.5798 74.8933 46.1771 74.8133 46.5398 74.728C46.9131 74.632 47.1158 74.584 47.1478 74.584C47.3398 74.584 47.4358 74.6693 47.4358 74.84C47.4358 74.8507 47.4251 74.9893 47.4038 75.256C47.3931 75.512 47.3878 75.672 47.3878 75.736C47.4731 75.6933 47.6811 75.56 48.0118 75.336C48.7691 74.8347 49.4411 74.584 50.0278 74.584C50.3371 74.584 50.6625 74.6693 51.0038 74.84C51.3451 75.0107 51.6278 75.2133 51.8518 75.448C52.0758 75.672 52.2731 76.024 52.4438 76.504C52.6251 76.984 52.7158 77.5387 52.7158 78.168C52.7158 79.704 52.3958 80.9093 51.7558 81.784C51.1265 82.6587 50.3158 83.096 49.3238 83.096C48.8331 83.096 48.4865 83.0587 48.2838 82.984C48.0811 82.8987 47.9318 82.8293 47.8358 82.776C47.7398 82.7227 47.6598 82.6587 47.5958 82.584C47.5318 82.4987 47.4838 82.4347 47.4518 82.392C47.4198 82.3387 47.3878 82.28 47.3558 82.216C47.3238 82.1413 47.3025 82.0987 47.2918 82.088ZM47.3718 76.408L47.2918 79.384C47.2918 80.504 47.4038 81.2773 47.6278 81.704C47.8625 82.12 48.2998 82.328 48.9398 82.328C49.5798 82.328 50.1131 82.0293 50.5398 81.432C50.9665 80.824 51.1798 79.896 51.1798 78.648C51.1798 76.76 50.5665 75.816 49.3398 75.816C48.7958 75.816 48.1398 76.0133 47.3718 76.408ZM53.3672 83V82.456C53.4525 82.4453 53.5645 82.4293 53.7032 82.408C53.8419 82.376 53.9325 82.36 53.9752 82.36C54.0179 82.3493 54.0819 82.328 54.1672 82.296C54.2632 82.264 54.3219 82.2373 54.3432 82.216C54.3645 82.1947 54.4019 82.152 54.4552 82.088C54.5085 82.024 54.5352 81.96 54.5352 81.896C54.5459 81.832 54.5619 81.7467 54.5832 81.64C54.6045 81.5227 54.6152 81.4 54.6152 81.272V77.832C54.6152 76.7333 54.5992 74.9787 54.5672 72.568L54.5512 71.8C54.5405 71.5333 54.4765 71.3627 54.3592 71.288C54.2419 71.2133 54.0072 71.176 53.6552 71.176H53.4472L53.4152 70.648C54.2045 70.552 54.7912 70.4613 55.1752 70.376C55.5592 70.28 55.7725 70.232 55.8152 70.232C55.9965 70.232 56.0872 70.312 56.0872 70.472C56.1085 71.3467 56.1192 72.44 56.1192 73.752C56.1192 75.064 56.0925 76.4667 56.0392 77.96C55.9859 79.4427 55.9592 80.616 55.9592 81.48C55.9592 81.8853 56.0179 82.136 56.1352 82.232C56.2632 82.3173 56.5992 82.392 57.1432 82.456V83H53.3672ZM63.9621 76.728L63.8981 80.952C63.8981 81.2187 64.0154 81.544 64.2501 81.928C64.4954 82.3013 64.6181 82.52 64.6181 82.584C64.6181 82.6373 64.5701 82.68 64.4741 82.712C63.7274 82.9573 63.3061 83.08 63.2101 83.08C63.1247 83.08 63.0341 83.0053 62.9381 82.856C62.8527 82.696 62.7727 82.504 62.6981 82.28C62.6234 82.056 62.5807 81.9387 62.5701 81.928C62.4101 82.0347 62.2127 82.168 61.9781 82.328C61.7434 82.488 61.5781 82.6 61.4821 82.664C61.3967 82.7173 61.2687 82.7867 61.0981 82.872C60.9381 82.9573 60.7941 83.016 60.6661 83.048C60.3674 83.1227 59.9621 83.16 59.4501 83.16C58.9487 83.16 58.5754 82.9573 58.3301 82.552C58.0847 82.1467 57.9621 81.704 57.9621 81.224C57.9621 80.744 57.9994 80.36 58.0741 80.072C58.1487 79.784 58.2714 79.544 58.4421 79.352C58.6127 79.16 58.7834 79 58.9541 78.872C59.1247 78.744 59.3647 78.6373 59.6741 78.552C59.9941 78.456 60.2661 78.3867 60.4901 78.344C60.7247 78.2907 61.0501 78.2267 61.4661 78.152C61.8821 78.0667 62.2181 77.9973 62.4741 77.944L62.4901 76.984C62.4901 76.4933 62.3141 76.1413 61.9621 75.928C61.6101 75.7147 61.1834 75.608 60.6821 75.608C60.1914 75.608 59.8501 75.736 59.6581 75.992C59.4661 76.2373 59.2581 76.7707 59.0341 77.592L58.3781 77.528C58.3781 76.6 58.5381 75.9493 58.8581 75.576C59.2421 75.128 59.6581 74.8507 60.1061 74.744C60.5541 74.6373 61.0074 74.584 61.4661 74.584C61.9354 74.584 62.3354 74.6373 62.6661 74.744C62.9967 74.8507 63.2421 74.9733 63.4021 75.112C63.5727 75.24 63.7007 75.4213 63.7861 75.656C63.8821 75.88 63.9354 76.0613 63.9461 76.2C63.9567 76.3387 63.9621 76.5147 63.9621 76.728ZM59.4021 80.904C59.4021 81.6933 59.7594 82.088 60.4741 82.088C61.1034 82.088 61.7381 81.8213 62.3781 81.288C62.4527 81.224 62.4901 80.8347 62.4901 80.12C62.4901 79.4053 62.4847 78.888 62.4741 78.568C62.2821 78.632 62.0367 78.712 61.7381 78.808C61.4501 78.904 61.2421 78.9733 61.1141 79.016C60.9967 79.0587 60.8367 79.1173 60.6341 79.192C60.4314 79.256 60.2927 79.3093 60.2181 79.352C60.1541 79.3947 60.0581 79.448 59.9301 79.512C59.8127 79.576 59.7381 79.64 59.7061 79.704C59.6741 79.7573 59.6261 79.8267 59.5621 79.912C59.4981 79.9867 59.4607 80.0773 59.4501 80.184C59.4181 80.4827 59.4021 80.7227 59.4021 80.904ZM71.3787 74.856L72.4347 74.792C72.584 74.792 72.6587 74.872 72.6587 75.032C72.6587 75.064 72.648 75.096 72.6267 75.128C72.616 75.1493 72.5894 75.192 72.5467 75.256C72.5147 75.32 72.4667 75.4 72.4027 75.496C72.3494 75.5813 72.2694 75.7253 72.1627 75.928C72.0667 76.12 71.9547 76.344 71.8267 76.6C71.5814 77.112 71.2134 77.96 70.7227 79.144C69.752 81.576 68.984 83.6827 68.4187 85.464C68.28 85.8907 68.184 86.1413 68.1307 86.216C68.088 86.2907 68.0027 86.328 67.8747 86.328C67.1707 86.328 66.8187 86.1733 66.8187 85.864C66.8187 85.6933 67.0054 85.304 67.3787 84.696C67.7627 84.0987 67.9547 83.6187 67.9547 83.256C67.9547 82.8933 67.6454 81.6347 67.0267 79.48C66.4187 77.3253 65.9867 76.0987 65.7307 75.8C65.624 75.6613 65.5067 75.5867 65.3787 75.576C65.2614 75.5547 65.1494 75.544 65.0427 75.544C64.936 75.5333 64.8614 75.5227 64.8187 75.512L64.7867 74.984C65.4907 74.888 66.0347 74.792 66.4187 74.696C66.8134 74.5893 67.032 74.536 67.0747 74.536C67.256 74.536 67.3467 74.616 67.3467 74.776C67.3467 75.0853 67.7627 76.76 68.5947 79.8L69.0267 81.32C70.1574 78.3013 70.7227 76.4827 70.7227 75.864C70.7227 75.576 70.6267 75.432 70.4347 75.432C70.2427 75.432 70.1467 75.3253 70.1467 75.112C70.1467 74.92 70.328 74.824 70.6907 74.824L71.3787 74.856ZM82.7454 74.856L83.8014 74.792C83.9508 74.792 84.0254 74.872 84.0254 75.032C84.0254 75.064 84.0148 75.096 83.9934 75.128C83.9828 75.1493 83.9561 75.192 83.9134 75.256C83.8814 75.32 83.8334 75.4 83.7694 75.496C83.7161 75.5813 83.6361 75.7253 83.5294 75.928C83.4334 76.12 83.3214 76.344 83.1934 76.6C82.9481 77.112 82.5801 77.96 82.0894 79.144C81.1188 81.576 80.3508 83.6827 79.7854 85.464C79.6468 85.8907 79.5508 86.1413 79.4974 86.216C79.4548 86.2907 79.3694 86.328 79.2414 86.328C78.5374 86.328 78.1854 86.1733 78.1854 85.864C78.1854 85.6933 78.3721 85.304 78.7454 84.696C79.1294 84.0987 79.3214 83.6187 79.3214 83.256C79.3214 82.8933 79.0121 81.6347 78.3934 79.48C77.7854 77.3253 77.3534 76.0987 77.0974 75.8C76.9908 75.6613 76.8734 75.5867 76.7454 75.576C76.6281 75.5547 76.5161 75.544 76.4094 75.544C76.3028 75.5333 76.2281 75.5227 76.1854 75.512L76.1534 74.984C76.8574 74.888 77.4014 74.792 77.7854 74.696C78.1801 74.5893 78.3988 74.536 78.4414 74.536C78.6228 74.536 78.7134 74.616 78.7134 74.776C78.7134 75.0853 79.1294 76.76 79.9614 79.8L80.3934 81.32C81.5241 78.3013 82.0894 76.4827 82.0894 75.864C82.0894 75.576 81.9934 75.432 81.8014 75.432C81.6094 75.432 81.5134 75.3253 81.5134 75.112C81.5134 74.92 81.6948 74.824 82.0574 74.824L82.7454 74.856ZM85.1164 82.056C84.8924 81.7467 84.7058 81.32 84.5564 80.776C84.4071 80.2213 84.3324 79.528 84.3324 78.696C84.3324 77.8533 84.5511 77.0747 84.9884 76.36C85.2764 75.912 85.7778 75.5067 86.4924 75.144C87.2071 74.7707 87.7991 74.584 88.2684 74.584C89.2178 74.584 90.0284 74.888 90.7004 75.496C91.3724 76.104 91.7084 77.0533 91.7084 78.344C91.7084 79.624 91.4738 80.6213 91.0044 81.336C90.3751 82.1787 89.7618 82.7333 89.1644 83C88.7591 83.1813 88.3378 83.272 87.9004 83.272C87.4631 83.272 87.1058 83.24 86.8284 83.176C86.5511 83.1227 86.2524 83 85.9324 82.808C85.6231 82.616 85.3511 82.3653 85.1164 82.056ZM85.8524 78.904C85.8524 80.056 86.0711 80.8827 86.5084 81.384C86.9564 81.8853 87.6018 82.136 88.4444 82.136C88.7644 82.136 88.9991 82.1093 89.1484 82.056C89.8844 81.768 90.2524 80.6587 90.2524 78.728C90.2524 77.8213 90.1298 77.16 89.8844 76.744C89.6498 76.3173 89.2391 76.0133 88.6524 75.832C88.3538 75.7573 88.0818 75.72 87.8364 75.72C87.5911 75.72 87.4098 75.7253 87.2924 75.736C87.1858 75.7467 87.0418 75.7787 86.8604 75.832C86.6791 75.8853 86.5404 75.976 86.4444 76.104C86.3484 76.2213 86.2471 76.3867 86.1404 76.6C85.9484 76.984 85.8524 77.752 85.8524 78.904ZM98.1981 80.632L98.2301 76.84C98.2301 76.072 98.1607 75.6507 98.0221 75.576C97.9474 75.5333 97.8141 75.512 97.6221 75.512H97.1101L97.0781 74.984C97.9101 74.9093 98.5074 74.8293 98.8701 74.744C99.2434 74.648 99.4461 74.6 99.4781 74.6C99.6701 74.6 99.7661 74.68 99.7661 74.84C99.7661 76.184 99.7447 77.4907 99.7021 78.76C99.6594 80.0293 99.6381 80.7813 99.6381 81.016C99.6381 81.2507 99.7554 81.56 99.9901 81.944C100.235 82.3173 100.358 82.536 100.358 82.6C100.358 82.6533 100.31 82.696 100.214 82.728C99.4674 82.9733 99.0461 83.096 98.9501 83.096C98.8647 83.096 98.7741 83.0213 98.6781 82.872C98.5927 82.712 98.5127 82.52 98.4381 82.296C98.3634 82.072 98.3207 81.9547 98.3101 81.944C97.6701 82.392 97.0834 82.7067 96.5501 82.888C96.0167 83.0587 95.5847 83.144 95.2541 83.144C94.9341 83.144 94.5927 82.9893 94.2301 82.68C93.8781 82.3707 93.6434 81.9867 93.5261 81.528C93.4194 81.1867 93.3661 80.5253 93.3661 79.544V76.968C93.3661 76.7013 93.3181 76.3333 93.2221 75.864C93.2007 75.7893 93.1314 75.7253 93.0141 75.672C92.8967 75.6187 92.8061 75.592 92.7421 75.592C92.6781 75.5813 92.5394 75.576 92.3261 75.576L92.2941 75.032C92.9767 74.9573 93.5154 74.8667 93.9101 74.76C94.3047 74.6533 94.5234 74.6 94.5661 74.6C94.7581 74.6 94.8541 74.68 94.8541 74.84L94.7901 79.512C94.7901 80.3013 94.8327 80.824 94.9181 81.08C95.0141 81.336 95.1581 81.5333 95.3501 81.672C95.5527 81.8107 95.7501 81.88 95.9421 81.88C96.1447 81.88 96.4221 81.8427 96.7741 81.768C97.1367 81.6933 97.4301 81.5973 97.6541 81.48C97.8887 81.352 98.0381 81.2453 98.1021 81.16C98.1661 81.064 98.1981 80.888 98.1981 80.632ZM103.761 77.208L103.745 81.544C103.745 81.8747 103.841 82.0933 104.033 82.2C104.225 82.296 104.513 82.3707 104.897 82.424C105.291 82.4773 105.505 82.504 105.537 82.504V83H101.057V82.456C101.313 82.424 101.483 82.408 101.569 82.408C101.654 82.3973 101.761 82.3653 101.889 82.312C102.027 82.248 102.107 82.1947 102.129 82.152C102.15 82.0987 102.182 81.992 102.225 81.832C102.267 81.672 102.289 81.512 102.289 81.352V80.088C102.289 77.944 102.251 76.6853 102.177 76.312C102.091 75.896 101.782 75.688 101.249 75.688L101.217 75.08C101.643 75.0373 102.081 74.936 102.529 74.776C102.977 74.616 103.265 74.536 103.393 74.536C103.521 74.536 103.611 74.6 103.665 74.728C103.718 74.8453 103.745 75.064 103.745 75.384L103.761 75.992C104.699 75.0853 105.441 74.632 105.985 74.632C106.379 74.632 106.651 74.68 106.801 74.776C106.95 74.872 107.025 75.048 107.025 75.304C107.025 75.3893 106.939 75.9653 106.769 77.032H106.193C106.139 76.232 105.867 75.832 105.377 75.832C105.099 75.832 104.758 75.96 104.353 76.216C103.958 76.4613 103.761 76.792 103.761 77.208ZM117.115 74.856L118.171 74.792C118.321 74.792 118.395 74.872 118.395 75.032C118.395 75.064 118.385 75.096 118.363 75.128C118.353 75.1493 118.326 75.192 118.283 75.256C118.251 75.32 118.203 75.4 118.139 75.496C118.086 75.5813 118.006 75.7253 117.899 75.928C117.803 76.12 117.691 76.344 117.563 76.6C116.987 77.7733 116.358 79.304 115.675 81.192C115.302 82.2267 115.073 82.8027 114.987 82.92C114.913 83.0373 114.843 83.1173 114.779 83.16C114.683 83.2133 114.529 83.24 114.315 83.24C114.113 83.24 113.958 83.1493 113.851 82.968C113.755 82.776 113.611 82.3653 113.419 81.736C113.238 81.096 113.099 80.632 113.003 80.344C112.918 80.0453 112.79 79.6027 112.619 79.016C112.459 78.4187 112.326 77.944 112.219 77.592C111.899 76.4933 111.601 75.8533 111.323 75.672C111.217 75.5973 111.073 75.5547 110.891 75.544C110.71 75.5333 110.598 75.5227 110.555 75.512L110.523 74.984C111.259 74.888 111.814 74.792 112.187 74.696C112.561 74.5893 112.769 74.536 112.811 74.536C112.993 74.536 113.083 74.616 113.083 74.776C113.083 75.0853 113.499 76.76 114.331 79.8L114.763 81.32C115.894 78.3333 116.459 76.5147 116.459 75.864C116.459 75.576 116.363 75.432 116.171 75.432C115.979 75.432 115.883 75.3253 115.883 75.112C115.883 74.92 116.065 74.824 116.427 74.824L117.115 74.856ZM120.542 73.32C120.372 73.32 120.18 73.192 119.966 72.936C119.753 72.6693 119.646 72.4773 119.646 72.36C119.646 72.232 119.732 72.008 119.902 71.688C120.084 71.368 120.27 71.208 120.462 71.208C120.654 71.208 120.868 71.3093 121.102 71.512C121.337 71.704 121.454 71.928 121.454 72.184C121.454 72.44 121.342 72.696 121.118 72.952C120.905 73.1973 120.713 73.32 120.542 73.32ZM118.702 83V82.456C119.246 82.4133 119.588 82.344 119.726 82.248C119.865 82.1413 119.934 81.928 119.934 81.608V78.28C119.934 77.352 119.908 76.7067 119.854 76.344C119.812 75.9813 119.737 75.752 119.63 75.656C119.524 75.5493 119.321 75.496 119.022 75.496H118.782L118.75 74.968C119.54 74.8933 120.126 74.8133 120.51 74.728C120.905 74.632 121.118 74.584 121.15 74.584C121.332 74.584 121.422 74.6693 121.422 74.84C121.422 74.968 121.417 75.32 121.406 75.896C121.364 78.1787 121.342 80.1467 121.342 81.8C121.342 82.0133 121.428 82.1733 121.598 82.28C121.769 82.376 122.041 82.4347 122.414 82.456V83H118.702ZM128.274 74.776L128.242 72.376C128.242 72.0347 128.237 71.8 128.226 71.672C128.226 71.5333 128.173 71.416 128.066 71.32C127.97 71.224 127.869 71.176 127.762 71.176C127.666 71.1653 127.453 71.1547 127.122 71.144L127.09 70.616C127.901 70.5413 128.498 70.4613 128.882 70.376C129.266 70.28 129.474 70.232 129.506 70.232C129.687 70.232 129.778 70.3173 129.778 70.488C129.778 72.7813 129.757 74.984 129.714 77.096C129.682 79.1973 129.666 80.4347 129.666 80.808C129.666 81.1707 129.799 81.5547 130.066 81.96C130.343 82.3653 130.482 82.5787 130.482 82.6C130.482 82.6213 130.434 82.6533 130.338 82.696C130.253 82.728 130.141 82.7653 130.002 82.808C129.863 82.8507 129.682 82.92 129.458 83.016C129.245 83.112 129.095 83.16 129.01 83.16C128.925 83.16 128.839 83.0747 128.754 82.904C128.669 82.7227 128.583 82.5253 128.498 82.312C128.423 82.0987 128.359 81.9653 128.306 81.912C127.506 82.7973 126.797 83.24 126.178 83.24C125.645 83.24 125.026 82.9467 124.322 82.36C123.959 82.072 123.655 81.6453 123.41 81.08C123.165 80.5147 123.042 79.9013 123.042 79.24C123.042 78.5787 123.074 78.0293 123.138 77.592C123.202 77.1547 123.271 76.8187 123.346 76.584C123.421 76.3387 123.533 76.12 123.682 75.928C123.842 75.736 123.959 75.608 124.034 75.544C124.119 75.48 124.253 75.3947 124.434 75.288L124.978 74.968C125.437 74.6907 125.938 74.552 126.482 74.552C127.037 74.552 127.634 74.6267 128.274 74.776ZM124.45 78.344C124.45 79.5707 124.658 80.4667 125.074 81.032C125.501 81.5867 126.018 81.864 126.626 81.864C127.234 81.864 127.789 81.624 128.29 81.144C128.29 79.2773 128.279 77.9547 128.258 77.176C128.247 76.3867 128.242 75.9707 128.242 75.928C127.741 75.6293 127.111 75.48 126.354 75.48C126.034 75.48 125.773 75.512 125.57 75.576C125.378 75.6293 125.186 75.7573 124.994 75.96C124.631 76.3227 124.45 77.1173 124.45 78.344ZM131.656 76.616C131.826 76.2213 132.237 75.7947 132.888 75.336C133.538 74.8667 134.125 74.632 134.648 74.632C135.181 74.632 135.634 74.6907 136.008 74.808C136.381 74.9253 136.674 75.1013 136.888 75.336C137.101 75.56 137.272 75.784 137.4 76.008C137.538 76.2213 137.629 76.4933 137.672 76.824C137.757 77.3573 137.8 77.7627 137.8 78.04V78.504C137.458 78.7173 136.898 78.824 136.12 78.824H132.84C132.84 79.9653 132.925 80.696 133.096 81.016C133.352 81.4853 133.672 81.7787 134.056 81.896C134.301 81.9707 134.589 82.008 134.92 82.008C135.848 82.008 136.696 81.6293 137.464 80.872L137.816 81.24C137.773 81.2827 137.672 81.3893 137.512 81.56C137.352 81.72 137.245 81.8267 137.192 81.88C137.138 81.9333 137.037 82.0347 136.888 82.184C136.738 82.3227 136.621 82.4187 136.536 82.472C136.461 82.5253 136.349 82.6053 136.2 82.712C136.061 82.8187 135.938 82.8933 135.832 82.936C135.736 82.9787 135.613 83.032 135.464 83.096C135.218 83.192 134.93 83.24 134.6 83.24C133.96 83.24 133.41 83.1173 132.952 82.872C132.504 82.616 132.168 82.2747 131.944 81.848C131.517 81.0693 131.304 80.1413 131.304 79.064C131.304 77.9867 131.421 77.1707 131.656 76.616ZM132.872 78.104H133.784C135.202 78.104 136.045 78.008 136.312 77.816C136.312 77.3573 136.237 76.9627 136.088 76.632C135.81 75.992 135.32 75.672 134.616 75.672C133.912 75.672 133.442 75.8533 133.208 76.216C132.984 76.568 132.872 77.1973 132.872 78.104ZM139.38 82.056C139.156 81.7467 138.97 81.32 138.82 80.776C138.671 80.2213 138.596 79.528 138.596 78.696C138.596 77.8533 138.815 77.0747 139.252 76.36C139.54 75.912 140.042 75.5067 140.756 75.144C141.471 74.7707 142.063 74.584 142.532 74.584C143.482 74.584 144.292 74.888 144.964 75.496C145.636 76.104 145.972 77.0533 145.972 78.344C145.972 79.624 145.738 80.6213 145.268 81.336C144.639 82.1787 144.026 82.7333 143.428 83C143.023 83.1813 142.602 83.272 142.164 83.272C141.727 83.272 141.37 83.24 141.092 83.176C140.815 83.1227 140.516 83 140.196 82.808C139.887 82.616 139.615 82.3653 139.38 82.056ZM140.116 78.904C140.116 80.056 140.335 80.8827 140.772 81.384C141.22 81.8853 141.866 82.136 142.708 82.136C143.028 82.136 143.263 82.1093 143.412 82.056C144.148 81.768 144.516 80.6587 144.516 78.728C144.516 77.8213 144.394 77.16 144.148 76.744C143.914 76.3173 143.503 76.0133 142.916 75.832C142.618 75.7573 142.346 75.72 142.1 75.72C141.855 75.72 141.674 75.7253 141.556 75.736C141.45 75.7467 141.306 75.7787 141.124 75.832C140.943 75.8853 140.804 75.976 140.708 76.104C140.612 76.2213 140.511 76.3867 140.404 76.6C140.212 76.984 140.116 77.752 140.116 78.904ZM151.986 79.288C151.602 79.1387 151.271 78.8987 150.994 78.568C150.727 78.2373 150.594 77.8107 150.594 77.288C150.594 76.7653 150.684 76.3653 150.866 76.088C151.25 75.4693 151.612 75.0693 151.954 74.888C152.295 74.696 152.732 74.6 153.266 74.6C153.799 74.6 154.279 74.6907 154.706 74.872C154.823 74.9147 154.908 74.9573 154.962 75C155.154 75.1173 155.25 75.336 155.25 75.656C155.25 75.688 155.244 75.768 155.234 75.896C155.212 76.1733 155.202 76.616 155.202 77.224H154.61C154.599 77.0853 154.551 76.8827 154.466 76.616C154.391 76.3493 154.306 76.1467 154.21 76.008C153.996 75.6987 153.596 75.544 153.01 75.544C152.444 75.544 152.071 75.6827 151.89 75.96C151.74 76.184 151.666 76.4347 151.666 76.712C151.666 76.9787 151.799 77.2187 152.066 77.432C152.332 77.6347 152.658 77.8 153.042 77.928C153.426 78.056 153.81 78.2 154.194 78.36C154.588 78.5093 154.919 78.7653 155.186 79.128C155.452 79.48 155.586 79.9333 155.586 80.488C155.586 81.0427 155.506 81.4533 155.346 81.72C155.058 82.1787 154.716 82.5627 154.322 82.872C154.162 82.9893 153.911 83.0853 153.57 83.16C153.228 83.2347 152.972 83.272 152.802 83.272C151.66 83.272 150.978 83.08 150.754 82.696C150.668 82.5573 150.626 82.376 150.626 82.152C150.626 81.288 150.647 80.76 150.69 80.568C150.743 80.3653 150.855 80.264 151.026 80.264C151.207 80.264 151.319 80.3387 151.362 80.488C151.404 80.6373 151.442 80.8453 151.474 81.112C151.591 81.8693 152.114 82.248 153.042 82.248C153.511 82.248 153.879 82.1413 154.146 81.928C154.412 81.7147 154.546 81.4267 154.546 81.064C154.546 80.6907 154.407 80.3973 154.13 80.184C153.863 79.9707 153.532 79.8053 153.138 79.688C152.754 79.56 152.37 79.4267 151.986 79.288ZM157.149 82.056C156.925 81.7467 156.739 81.32 156.589 80.776C156.44 80.2213 156.365 79.528 156.365 78.696C156.365 77.8533 156.584 77.0747 157.021 76.36C157.309 75.912 157.811 75.5067 158.525 75.144C159.24 74.7707 159.832 74.584 160.301 74.584C161.251 74.584 162.061 74.888 162.733 75.496C163.405 76.104 163.741 77.0533 163.741 78.344C163.741 79.624 163.507 80.6213 163.037 81.336C162.408 82.1787 161.795 82.7333 161.197 83C160.792 83.1813 160.371 83.272 159.933 83.272C159.496 83.272 159.139 83.24 158.861 83.176C158.584 83.1227 158.285 83 157.965 82.808C157.656 82.616 157.384 82.3653 157.149 82.056ZM157.885 78.904C157.885 80.056 158.104 80.8827 158.541 81.384C158.989 81.8853 159.635 82.136 160.477 82.136C160.797 82.136 161.032 82.1093 161.181 82.056C161.917 81.768 162.285 80.6587 162.285 78.728C162.285 77.8213 162.163 77.16 161.917 76.744C161.683 76.3173 161.272 76.0133 160.685 75.832C160.387 75.7573 160.115 75.72 159.869 75.72C159.624 75.72 159.443 75.7253 159.325 75.736C159.219 75.7467 159.075 75.7787 158.893 75.832C158.712 75.8853 158.573 75.976 158.477 76.104C158.381 76.2213 158.28 76.3867 158.173 76.6C157.981 76.984 157.885 77.752 157.885 78.904ZM167.079 77.208L167.063 81.544C167.063 81.8747 167.159 82.0933 167.351 82.2C167.543 82.296 167.831 82.3707 168.215 82.424C168.609 82.4773 168.823 82.504 168.855 82.504V83H164.375V82.456C164.631 82.424 164.801 82.408 164.887 82.408C164.972 82.3973 165.079 82.3653 165.207 82.312C165.345 82.248 165.425 82.1947 165.447 82.152C165.468 82.0987 165.5 81.992 165.543 81.832C165.585 81.672 165.607 81.512 165.607 81.352V80.088C165.607 77.944 165.569 76.6853 165.495 76.312C165.409 75.896 165.1 75.688 164.567 75.688L164.535 75.08C164.961 75.0373 165.399 74.936 165.847 74.776C166.295 74.616 166.583 74.536 166.711 74.536C166.839 74.536 166.929 74.6 166.983 74.728C167.036 74.8453 167.063 75.064 167.063 75.384L167.079 75.992C168.017 75.0853 168.759 74.632 169.303 74.632C169.697 74.632 169.969 74.68 170.119 74.776C170.268 74.872 170.343 75.048 170.343 75.304C170.343 75.3893 170.257 75.9653 170.087 77.032H169.511C169.457 76.232 169.185 75.832 168.695 75.832C168.417 75.832 168.076 75.96 167.671 76.216C167.276 76.4613 167.079 76.792 167.079 77.208ZM173.278 77.208L173.262 81.544C173.262 81.8747 173.358 82.0933 173.55 82.2C173.742 82.296 174.03 82.3707 174.414 82.424C174.808 82.4773 175.022 82.504 175.054 82.504V83H170.574V82.456C170.83 82.424 171 82.408 171.086 82.408C171.171 82.3973 171.278 82.3653 171.406 82.312C171.544 82.248 171.624 82.1947 171.646 82.152C171.667 82.0987 171.699 81.992 171.742 81.832C171.784 81.672 171.806 81.512 171.806 81.352V80.088C171.806 77.944 171.768 76.6853 171.694 76.312C171.608 75.896 171.299 75.688 170.766 75.688L170.734 75.08C171.16 75.0373 171.598 74.936 172.046 74.776C172.494 74.616 172.782 74.536 172.91 74.536C173.038 74.536 173.128 74.6 173.182 74.728C173.235 74.8453 173.262 75.064 173.262 75.384L173.278 75.992C174.216 75.0853 174.958 74.632 175.502 74.632C175.896 74.632 176.168 74.68 176.318 74.776C176.467 74.872 176.542 75.048 176.542 75.304C176.542 75.3893 176.456 75.9653 176.286 77.032H175.71C175.656 76.232 175.384 75.832 174.894 75.832C174.616 75.832 174.275 75.96 173.87 76.216C173.475 76.4613 173.278 76.792 173.278 77.208ZM183.449 74.856L184.505 74.792C184.655 74.792 184.729 74.872 184.729 75.032C184.729 75.064 184.719 75.096 184.697 75.128C184.687 75.1493 184.66 75.192 184.617 75.256C184.585 75.32 184.537 75.4 184.473 75.496C184.42 75.5813 184.34 75.7253 184.233 75.928C184.137 76.12 184.025 76.344 183.897 76.6C183.652 77.112 183.284 77.96 182.793 79.144C181.823 81.576 181.055 83.6827 180.489 85.464C180.351 85.8907 180.255 86.1413 180.201 86.216C180.159 86.2907 180.073 86.328 179.945 86.328C179.241 86.328 178.889 86.1733 178.889 85.864C178.889 85.6933 179.076 85.304 179.449 84.696C179.833 84.0987 180.025 83.6187 180.025 83.256C180.025 82.8933 179.716 81.6347 179.097 79.48C178.489 77.3253 178.057 76.0987 177.801 75.8C177.695 75.6613 177.577 75.5867 177.449 75.576C177.332 75.5547 177.22 75.544 177.113 75.544C177.007 75.5333 176.932 75.5227 176.889 75.512L176.857 74.984C177.561 74.888 178.105 74.792 178.489 74.696C178.884 74.5893 179.103 74.536 179.145 74.536C179.327 74.536 179.417 74.616 179.417 74.776C179.417 75.0853 179.833 76.76 180.665 79.8L181.097 81.32C182.228 78.3013 182.793 76.4827 182.793 75.864C182.793 75.576 182.697 75.432 182.505 75.432C182.313 75.432 182.217 75.3253 182.217 75.112C182.217 74.92 182.399 74.824 182.761 74.824L183.449 74.856Z" fill="white"/>
<path d="M159.998 107H74.0025C71.9063 107 70.4564 109.095 71.1948 111.057L84.5711 143.057C85.0112 144.226 86.1296 145 87.3788 145H146.621C147.87 145 148.989 144.226 149.429 143.057L162.805 111.057C163.544 109.095 162.094 107 159.998 107Z" fill="#00FF54"/>
<path d="M193.12 88.5703C193.12 90.314 192.931 92.2183 194.238 93.6026C194.896 94.2993 195.505 95.0944 196.319 95.5596C196.904 95.8938 197.042 96.7282 197.593 97.0196C200.702 98.6655 204.444 100.312 207.937 100.312C209.76 100.312 212.471 100.516 213.87 99.2562C214.99 98.249 216.094 97.5305 217.163 96.3984C218.155 95.3486 218.388 93.7567 219.338 92.7018C220.101 91.8534 221.077 89.3946 221.077 88.2907" stroke="white" stroke-width="3" stroke-linecap="round"/>
<path d="M208.496 79.9034C207.018 81.5668 207.937 84.3173 207.937 86.3337C207.937 88.5703 207.937 90.8069 207.937 93.0435" stroke="white" stroke-width="3" stroke-linecap="round"/>
</svg>
