<svg width="157" height="153" viewBox="0 0 157 153" fill="none" xmlns="http://www.w3.org/2000/svg">
<rect width="157" height="153" fill="#00FF54"/>
<path d="M104.667 51C115.076 51 125.06 55.0299 132.421 62.2032C139.781 69.3764 143.917 79.1055 143.917 89.25V133.875H117.75V89.25C117.75 85.8685 116.372 82.6255 113.918 80.2344C111.464 77.8433 108.137 76.5 104.667 76.5C101.197 76.5 97.869 77.8433 95.4154 80.2344C92.9618 82.6255 91.5834 85.8685 91.5834 89.25V133.875H65.4167V89.25C65.4167 79.1055 69.552 69.3764 76.9128 62.2032C84.2736 55.0299 94.257 51 104.667 51Z" stroke="#1E1E1E" stroke-width="4" stroke-linecap="round" stroke-linejoin="round"/>
<path d="M39.25 57.375H13.0834V133.875H39.25V57.375Z" stroke="#1E1E1E" stroke-width="4" stroke-linecap="round" stroke-linejoin="round"/>
<path d="M26.1667 38.25C33.3924 38.25 39.25 32.5416 39.25 25.5C39.25 18.4584 33.3924 12.75 26.1667 12.75C18.941 12.75 13.0834 18.4584 13.0834 25.5C13.0834 32.5416 18.941 38.25 26.1667 38.25Z" stroke="#1E1E1E" stroke-width="4" stroke-linecap="round" stroke-linejoin="round"/>
</svg>
